<svg xmlns="http://www.w3.org/2000/svg" xmlns:xlink="http://www.w3.org/1999/xlink" version="1.1" id="Layer_1" x="0px" y="0px" style="enable-background:new 0 0 1000 1000;" xml:space="preserve" viewBox="226.6 389.2 546.8 222.38">
<g>
	<g>
		<g>
			<path d="M412.5,415.6c0,2.6,0.9,3.5,3.8,3.5h1.8v0.9h-15.1v-0.9h1.8c2.9,0,3.8-0.9,3.8-3.5v-23.7h-8.4c-1.9,0-2.8,1.1-3.5,5.3     h-0.9l0.8-7.8h0.9c0,0.3,0.2,0.5,0.5,0.6c0.3,0.1,0.6,0.1,1,0.1H422c0.7,0,1.4-0.1,1.5-0.7h0.9l0.8,7.8h-0.9     c-0.7-4.2-1.6-5.3-3.5-5.3h-8.4V415.6z"/>
		</g>
		<g>
			<path d="M441.1,405.7v9.1c0,3.1,0.6,4.2,3.8,4.2h0.1v0.9h-12v-0.9h0.3c2.8,0,3.8-0.8,3.8-3.5v-21.1c0-2.5-0.8-3.2-3.5-3.4v-0.9     H445v0.9c-3.4,0-4,0.9-4,4.6v8.4h18.8v-9.5c0-2.5-0.8-3.5-3.8-3.5h-0.9v-0.9h12.3v0.9c-2.9,0.1-3.6,1-3.6,3.9v19.9     c0,3.4,1,4.2,3.8,4.2h0.5v0.9h-13.6v-0.9h1.5c3.1,0,3.8-1.1,3.8-3.6v-9.7H441.1z"/>
		</g>
		<g>
			<path d="M496.6,409.2h-0.9c-0.4-3.4-1.3-3.8-3.3-3.8h-8.1v10.2c0,2.2,0.8,2.6,2.6,2.6h7.4c3.4,0,4.4-1.3,5.6-5.4h0.9L500,420     h-25.5v-0.9h1.3c3.8,0,4.5-1.1,4.5-3.9v-20.3c0-2.7-0.6-3.8-3.8-3.8h-1.1v-0.9h23l0.4,6.7H498c-0.6-4.1-1.8-4.9-3.6-4.9h-10.1     v11.8h8.6c1.7,0,2.5-0.8,2.8-3.6h0.9V409.2z"/>
		</g>
		<g>
			<path d="M539.7,389.4v27.8c0,1.4,0.3,1.8,1.8,1.8h2.7v0.9h-12.1v-0.9h2.6c1.5,0,1.8-0.4,1.8-1.9v-24c-1.5,1.3-4.2,3.1-6,3.9     l-0.4-0.7c2.8-1.9,6.8-5.5,7.9-7.1H539.7z"/>
		</g>
		<g>
			<path d="M559,390h11.4c0.9,0,1.2-0.2,1.4-0.6h0.9l-0.5,3.7H560l-0.4,8.6c1.5-0.8,3.2-1.2,5.2-1.2c5.4,0,9.8,4.5,9.8,9.8     c0,5.8-4.8,10.2-11.3,10.2c-3.8,0-7-1.3-7-3c0-0.8,0.7-1.5,1.6-1.5c2.6,0,3.5,3.4,6.5,3.4c3.6,0,6.6-3.7,6.6-8.1     c0-4.4-3-7.6-7.2-7.6c-1.8,0-3.6,0.7-5.1,1.8l-0.5-0.3L559,390z"/>
		</g>
		<g>
			<path d="M594.2,420.7c-5,0-10-6.2-10-15.6c0-9,4.7-15.6,10-15.6c5.6,0,10,7.3,10,15.6C604.2,413.9,599.6,420.7,594.2,420.7z      M594.2,390.3c-5,0-6.4,6-6.4,14.7c0,9.4,1.5,14.7,6.4,14.7c5.2,0,6.4-5.8,6.4-14.7C600.6,396.6,599.5,390.3,594.2,390.3z"/>
		</g>
	</g>
	<g>
		<g>
			<path d="M344.9,578.1c-19.7,10.2-45.1,12.5-53.4,12.5c-43.7,0-64-33.6-64-62.7c0-29.9,20.9-67.3,69.6-67.3     c21.3,0,35.5,6.8,39.7,6.8c1.8,0,3.4-0.4,4.6-1.4h2.8v32.3h-4c-5.4-24.9-22.3-32.6-40.9-32.6c-35.1,0-53,29.1-53,61.1     c0,40.8,28.7,58.9,51.6,58.9c9.2,0,19.3-2,30.5-7.6V553c0-11.3-4-15.1-15.9-15.1H305v-3.6h53.8v3.6c-10,0.6-14,4-14,12.5V578.1z"/>
		</g>
		<g>
			<path d="M416.7,532.5l-11.6,31.3c-1.4,3.8-4,9.8-4,12.5c0,5.4,5.2,7.4,16.1,7.4h3.2v3.8h-46v-3.8c13-0.2,15.2-2.4,21.5-19.7     l36.3-98.9l-1.8-4.4h17.3l41.7,110.5c4,10.6,8.2,12.5,18.1,12.5v3.8h-54.8v-3.8h5.2c11.4,0,15.5-1.2,15.5-6.8     c0-3.2-1.4-6.2-2.2-8.2l-13.4-36.2H416.7z M437,477.3l-16.9,46.4h34.5L437,477.3z"/>
		</g>
		<g>
			<path d="M611.6,587.4h-89.1v-3.8h6.6c9.2,0,12.6-3,12.6-13.1v-88.2c0-10.6-3.2-14.9-15.7-14.9h-2.8v-3.8h58.8v3.8h-7.4     c-13,0-16.3,1.4-16.3,13.7v91.8c0,5.4,2.2,7.4,8,7.4h29.3c11.8,0,15.3-4.6,27.9-21.9h3.6L611.6,587.4z"/>
		</g>
		<g>
			<path d="M681.6,532.5L670,563.7c-1.4,3.8-4,9.8-4,12.5c0,5.4,5.2,7.4,16.1,7.4h3.2v3.8h-46v-3.8c13-0.2,15.2-2.4,21.5-19.7     l36.3-98.9l-1.8-4.4h17.3l41.7,110.5c4,10.6,8.2,12.5,18.1,12.5v3.8h-54.8v-3.8h5.2c11.4,0,15.5-1.2,15.5-6.8     c0-3.2-1.4-6.2-2.2-8.2l-13.4-36.2H681.6z M701.9,477.3L685,523.7h34.5L701.9,477.3z"/>
		</g>
	</g>
	<g>
		<line x1="226.6" y1="610.6" x2="773.4" y2="610.6"/>
		<path d="M226.6,610.6c175.2-1.3,371.6-1.3,546.8,0C598.2,611.9,401.8,611.9,226.6,610.6L226.6,610.6z"/>
	</g>
	<g>
		<line x1="226.6" y1="440.6" x2="773.4" y2="440.6"/>
		<path d="M226.6,440.6c175.2-1.3,371.6-1.3,546.8,0C598.2,441.9,401.8,441.9,226.6,440.6L226.6,440.6z"/>
	</g>
</g>
</svg>