<svg width="547" height="254" viewBox="0 0 547 254" fill="none" xmlns="http://www.w3.org/2000/svg">
<path d="M491.05 182.608C491.228 182.151 491.359 181.663 491.446 181.148C491.533 180.633 491.574 180.068 491.574 179.452V173.629C491.574 173.009 491.53 172.442 491.446 171.927C491.359 171.412 491.228 170.929 491.05 170.475H497.7L496.749 172.431C496.362 172.18 495.906 171.995 495.382 171.87C494.855 171.747 494.253 171.684 493.567 171.684H493.425V175.872H497.197L496.092 177.633C495.789 177.475 495.42 177.349 494.986 177.248C494.552 177.15 494.034 177.08 493.425 177.036V181.45C493.477 181.45 493.556 181.453 493.665 181.458C493.771 181.463 493.854 181.466 493.906 181.466C494.673 181.466 495.42 181.396 496.149 181.252C496.876 181.11 497.596 180.892 498.314 180.598L497.397 182.6H491.053L491.05 182.608Z" fill="white"/>
<path d="M498.862 179.608C499.138 180.131 499.48 180.526 499.884 180.793C500.288 181.063 500.746 181.196 501.265 181.196C501.772 181.196 502.185 181.052 502.504 180.764C502.823 180.475 502.982 180.099 502.982 179.641C502.982 178.889 502.334 178.145 501.046 177.409C500.88 177.311 500.755 177.237 500.669 177.192C499.796 176.673 499.198 176.181 498.873 175.712C498.549 175.243 498.387 174.666 498.387 173.981C498.387 172.962 498.742 172.106 499.455 171.406C500.164 170.706 501.04 170.358 502.081 170.358C502.412 170.358 502.755 170.393 503.115 170.463C503.476 170.534 503.847 170.641 504.229 170.78L504.15 172.892C503.893 172.572 503.593 172.33 503.249 172.164C502.903 171.998 502.526 171.913 502.111 171.913C501.574 171.913 501.14 172.068 500.809 172.38C500.478 172.69 500.315 173.096 500.315 173.597C500.315 174.003 500.435 174.36 500.675 174.66C500.915 174.962 501.447 175.357 502.274 175.842C502.332 175.872 502.417 175.925 502.534 175.992C503.301 176.437 503.855 176.824 504.197 177.158C504.466 177.42 504.674 177.728 504.81 178.088C504.949 178.444 505.018 178.84 505.018 179.273C505.018 180.35 504.644 181.191 503.902 181.801C503.156 182.412 502.119 182.717 500.793 182.717C500.473 182.717 500.148 182.687 499.82 182.63C499.493 182.573 499.152 182.482 498.8 182.362L498.862 179.608Z" fill="white"/>
<path d="M508.323 171.807C507.466 171.834 506.733 171.905 506.123 172.022C505.515 172.14 504.974 172.314 504.504 172.543L505.046 170.478H514.233L513.45 172.513C513.046 172.273 512.579 172.095 512.05 171.981C511.52 171.867 510.895 171.81 510.172 171.81V179.455C510.172 180.071 510.216 180.636 510.3 181.15C510.387 181.665 510.518 182.151 510.696 182.61H507.794C507.971 182.153 508.103 181.665 508.19 181.15C508.277 180.636 508.318 180.071 508.318 179.455V171.81L508.323 171.807Z" fill="white"/>
<path d="M511.87 181.388C511.87 181.039 511.998 180.731 512.257 180.466C512.516 180.202 512.825 180.071 513.186 180.071C513.551 180.071 513.862 180.199 514.119 180.458C514.375 180.717 514.504 181.025 514.504 181.388C514.504 181.764 514.375 182.079 514.119 182.335C513.862 182.591 513.551 182.719 513.186 182.719C512.825 182.719 512.514 182.591 512.257 182.333C511.998 182.074 511.87 181.761 511.87 181.39V181.388Z" fill="white"/>
<path d="M519.352 182.608C519.529 182.15 519.66 181.663 519.748 181.148C519.835 180.633 519.876 180.068 519.876 179.452V172.894H518.465L521.696 170.232V179.452C521.696 180.09 521.737 180.662 521.817 181.169C521.896 181.676 522.027 182.159 522.205 182.605H519.352V182.608Z" fill="white"/>
<path d="M524.202 176.166C523.746 175.832 523.41 175.466 523.195 175.071C522.979 174.676 522.87 174.226 522.87 173.725C522.87 172.772 523.209 171.97 523.891 171.327C524.571 170.684 525.414 170.36 526.424 170.36C527.424 170.36 528.243 170.668 528.884 171.281C529.526 171.894 529.844 172.673 529.844 173.616C529.844 174.164 529.73 174.657 529.497 175.093C529.266 175.528 528.933 175.883 528.493 176.153C529.071 176.423 529.506 176.805 529.787 177.289C530.068 177.774 530.21 178.376 530.21 179.099C530.21 180.142 529.841 181.009 529.105 181.692C528.368 182.38 527.434 182.722 526.307 182.722C525.21 182.722 524.314 182.398 523.621 181.75C522.927 181.098 522.58 180.262 522.58 179.232C522.58 178.569 522.718 177.984 522.987 177.472C523.258 176.96 523.665 176.526 524.202 176.172V176.166ZM526.421 181.033C527.017 181.033 527.503 180.854 527.879 180.494C528.256 180.134 528.444 179.668 528.444 179.093C528.444 178.523 528.251 178.065 527.866 177.714C527.478 177.365 526.973 177.191 526.345 177.191C525.761 177.191 525.283 177.368 524.918 177.72C524.552 178.072 524.369 178.521 524.369 179.063C524.369 179.616 524.565 180.082 524.956 180.463C525.346 180.845 525.837 181.036 526.421 181.036V181.033ZM526.451 175.648C526.976 175.648 527.396 175.48 527.718 175.139C528.04 174.799 528.202 174.357 528.202 173.81C528.202 173.226 528.045 172.766 527.734 172.431C527.424 172.095 526.998 171.929 526.451 171.929C525.886 171.929 525.425 172.101 525.065 172.45C524.704 172.796 524.524 173.24 524.524 173.777C524.524 174.314 524.71 174.76 525.078 175.115C525.447 175.469 525.905 175.646 526.454 175.646L526.451 175.648Z" fill="white"/>
<path d="M536.169 172.071H533.489C532.741 172.071 532.146 172.14 531.704 172.276C531.262 172.412 530.887 172.633 530.579 172.94V170.475H538.64L535.047 179.319C534.837 179.837 534.676 180.324 534.561 180.788C534.447 181.252 534.389 181.638 534.389 181.949C534.389 182.041 534.398 182.145 534.417 182.249C534.436 182.354 534.463 182.474 534.498 182.605H531.417C531.725 182.207 532.025 181.745 532.315 181.215C532.604 180.684 532.888 180.085 533.166 179.412L536.169 172.071Z" fill="white"/>
<path d="M544.101 175.57C544.885 175.752 545.502 176.134 545.953 176.712C546.403 177.289 546.626 177.995 546.626 178.823C546.626 180.003 546.236 180.948 545.456 181.66C544.675 182.372 543.629 182.728 542.321 182.728C541.689 182.728 541.096 182.644 540.542 182.477C539.988 182.311 539.478 182.058 539.014 181.717L540.19 179.54C540.471 180.134 540.815 180.575 541.222 180.859C541.629 181.142 542.112 181.287 542.677 181.287C543.316 181.287 543.837 181.063 544.241 180.617C544.645 180.169 544.849 179.592 544.849 178.883C544.849 178.238 544.615 177.725 544.148 177.349C543.681 176.973 543.045 176.785 542.245 176.785C542.125 176.785 542.006 176.79 541.885 176.801C541.765 176.813 541.645 176.829 541.524 176.848L544.331 171.878C542.559 171.889 541.301 171.959 540.558 172.087C539.816 172.218 539.332 172.434 539.109 172.738V170.469H546.998L544.104 175.565L544.101 175.57Z" fill="white"/>
<path d="M76.9997 2H10.042L2 31.998H46.9988V252H76.9997V2Z" fill="url(#paint0_linear_289_1483)" stroke="url(#paint1_linear_289_1483)" stroke-width="2.5" stroke-miterlimit="10"/>
<path d="M539.868 94.532V95.333H540.889V97.772H541.891V95.333H542.912V94.532H539.868Z" fill="white"/>
<path d="M545.682 94.532L545.179 96.504L544.671 94.532H543.355V97.772H544.175V95.303L544.807 97.772H545.549L546.18 95.303V97.772H547V94.532H545.684H545.682Z" fill="white"/>
<path d="M282.999 152.001C282.999 207.232 238.229 252 183.001 252C127.774 252 82.9997 207.229 82.9997 152.001H113.002C113.002 190.661 144.34 222 183.001 222C221.662 222 253.001 190.661 253.001 152.001C253.001 113.341 221.662 82 183.001 82C183.001 82 182.672 82 182.031 82.019C177.652 82.068 173.371 82.529 169.232 83.36C150.901 86.379 117.181 96.05 86.1527 127.089L93.3437 100.238L119.661 2H282.999L274.958 32.001H142.681L133.871 64.88C148.381 56.681 165.15 52 183.001 52C238.232 52 282.999 96.781 282.999 151.999V152.002V152.001Z" fill="url(#paint2_linear_289_1483)" stroke="url(#paint3_linear_289_1483)" stroke-width="2.5" stroke-miterlimit="10"/>
<path d="M315.82 222C263.36 222 220.82 179.46 220.82 127C220.82 74.54 263.36 32 315.82 32C354.98 32 388.61 55.69 403.15 89.53H435.109C419.189 38.8 371.8 2 315.82 2C246.79 2 190.82 57.96 190.82 127C190.82 196.04 246.79 252 315.82 252C371.8 252 419.189 215.2 435.109 164.47H403.14C388.61 198.3 354.98 222 315.82 222Z" fill="url(#paint4_linear_289_1483)" stroke="url(#paint5_linear_289_1483)" stroke-width="2.5" stroke-miterlimit="10"/>
<g filter="url(#filter0_d_289_1483)">
<path d="M274.963 32.001H234.583C248.113 20.421 264.133 11.681 281.743 6.70099L274.963 32.001Z" fill="url(#paint6_linear_289_1483)"/>
</g>
<path d="M279.849 127H248.399C238.339 100.69 212.849 82 182.999 82C182.999 82 182.669 82 182.029 82.02C177.649 82.07 173.369 82.53 169.229 83.36C150.919 86.38 117.24 96.03 86.2397 127L86.1497 127.09L86.1697 127L93.3397 100.24L119.66 2H282.999L274.959 32H142.68L133.87 64.88C148.379 56.68 165.149 52 182.999 52C229.599 52 268.749 83.87 279.849 127Z" fill="url(#paint7_linear_289_1483)"/>
<path d="M243.027 188.035C249.359 177.509 253.001 165.181 253.001 152.001C253.001 113.341 221.662 82 183.001 82C183.001 82 182.672 82 182.031 82.019C177.652 82.068 173.371 82.529 169.232 83.36C150.901 86.379 117.181 96.05 86.1527 127.089L93.3437 100.238L119.661 2H282.999L274.958 32.001H142.682L133.871 64.88C148.381 56.681 165.15 52 183.001 52C238.232 52 282.999 96.781 282.999 151.999V152.002C282.999 172.693 276.715 191.917 265.951 207.868" stroke="url(#paint8_linear_289_1483)" stroke-width="2.5" stroke-miterlimit="10"/>
<path fill-rule="evenodd" clip-rule="evenodd" d="M532.383 107.6C531.759 107.415 530.795 107.162 529.499 106.845C528.202 106.529 526.57 106.151 524.609 105.709C523.242 105.423 521.796 105.186 520.275 105.003C518.755 104.823 517.158 104.695 515.481 104.626L514.011 104.559L512.539 104.49V123.897C513.114 123.845 513.68 123.796 514.237 123.756C514.793 123.714 515.345 123.679 515.886 123.663C516.426 123.63 516.974 123.602 517.532 123.583C518.086 123.562 518.642 123.545 519.2 123.529C519.756 123.513 520.299 123.497 520.826 123.477C521.353 123.461 521.869 123.444 522.377 123.425C522.816 123.409 523.34 123.393 523.949 123.38C524.558 123.366 525.251 123.357 526.029 123.357C527.129 123.357 528.428 123.39 529.938 123.455C531.447 123.518 533.162 123.61 535.089 123.73L532.046 127.679L529.001 131.627C527.631 131.156 526.239 130.742 524.815 130.387C523.389 130.033 521.937 129.736 520.45 129.502C519.688 129.366 518.978 129.257 518.329 129.169C517.676 129.08 517.087 129.014 516.563 128.963C516.038 128.91 515.438 128.87 514.766 128.84C514.095 128.81 513.35 128.793 512.539 128.793V149.278H515.752C516.598 149.278 517.348 149.262 518.012 149.227C518.675 149.194 519.251 149.142 519.74 149.075C520.247 149.022 520.99 148.938 521.981 148.818C522.969 148.696 524.203 148.534 525.691 148.333C526.96 148.164 528.09 148.011 529.089 147.87C530.088 147.728 530.948 147.592 531.677 147.456C532.419 147.32 533.205 147.15 534.038 146.957C534.87 146.763 535.749 146.543 536.68 146.309C537.611 146.055 538.499 145.818 539.348 145.592C540.196 145.363 541.006 145.145 541.785 144.924L539.08 149.902L536.375 154.881H499.557C499.589 154.881 499.693 154.744 499.863 154.48C500.031 154.213 500.269 153.818 500.572 153.295C500.774 152.857 500.935 152.409 501.061 151.946C501.189 151.483 501.279 151.001 501.347 150.497C501.415 149.993 501.464 149.534 501.501 149.139C501.533 148.742 501.552 148.406 501.552 148.137V105.546C501.552 105.428 501.552 105.276 501.55 105.085C501.547 104.894 501.536 104.668 501.52 104.398C501.503 104.112 501.478 103.815 501.442 103.513C501.407 103.21 501.366 102.897 501.314 102.575C501.282 102.238 501.222 101.918 501.143 101.606C501.064 101.294 500.962 100.99 500.842 100.684C500.758 100.499 500.657 100.313 500.542 100.131C500.43 99.948 500.302 99.771 500.165 99.605C500.048 99.436 499.928 99.283 499.822 99.15C499.714 99.014 499.622 98.897 499.554 98.796H537.859L535.122 103.199L532.383 107.602V107.6ZM468.892 148.707C470.581 148.707 472.407 148.606 474.32 148.412C476.234 148.219 478.237 147.93 480.285 147.559C482.449 147.189 485.576 146.622 488.627 145.998C491.679 145.373 494.654 144.69 496.513 144.082L494.4 149.483L492.287 154.884H453.711C453.796 154.767 453.881 154.639 453.968 154.493C454.058 154.349 454.148 154.189 454.252 154.004C454.353 153.802 454.454 153.597 454.546 153.396C454.64 153.194 454.724 152.99 454.793 152.788C454.945 152.434 455.071 152.047 455.172 151.627C455.273 151.211 455.349 150.764 455.401 150.289C455.469 149.819 455.53 149.404 455.571 149.044C455.612 148.685 455.639 148.382 455.639 148.128V105.537C455.639 105.268 455.631 104.93 455.609 104.529C455.587 104.129 455.554 103.665 455.503 103.142C455.45 102.635 455.36 102.145 455.227 101.679C455.096 101.21 454.926 100.763 454.724 100.341C454.624 100.156 454.522 99.987 454.424 99.834C454.326 99.681 454.233 99.548 454.148 99.428C454.063 99.311 453.987 99.199 453.916 99.095C453.846 98.989 453.777 98.888 453.708 98.787H468.143C468.094 98.787 468.002 98.904 467.856 99.136C467.715 99.368 467.519 99.714 467.264 100.169C467.062 100.624 466.893 101.099 466.757 101.586C466.62 102.074 466.519 102.583 466.451 103.103C466.383 103.627 466.334 104.101 466.296 104.51C466.258 104.919 466.233 105.265 466.216 105.535V148.698H468.883L468.892 148.707ZM421.763 148.908C420.647 148.891 419.481 148.731 418.326 148.432C417.171 148.131 416.031 147.693 414.966 147.12C413.902 146.546 412.922 145.813 412.031 144.927C411.144 144.042 410.351 143.004 409.657 141.823C408.947 140.625 408.415 139.308 408.06 137.867C407.705 136.423 407.528 134.856 407.528 133.151V105.546C407.544 105.276 407.588 104.946 407.642 104.559C407.697 104.172 407.766 103.725 407.834 103.218C407.918 102.731 408.019 102.249 408.134 101.78C408.249 101.311 408.374 100.856 408.51 100.417C408.748 99.878 408.933 99.472 409.068 99.201C409.204 98.931 409.286 98.795 409.321 98.795H395.832C395.901 98.931 395.969 99.073 396.039 99.233C396.11 99.394 396.187 99.571 396.272 99.772C396.373 99.974 396.472 100.194 396.571 100.434C396.669 100.674 396.762 100.935 396.846 101.225C396.964 101.562 397.076 101.925 397.169 102.311C397.261 102.698 397.339 103.113 397.388 103.551C397.473 103.99 397.53 104.377 397.574 104.712C397.615 105.045 397.641 105.325 397.657 105.544V130.551C397.657 132.999 397.844 135.007 398.214 136.878C398.585 138.75 399.146 140.489 399.887 142.396C400.63 144.32 401.569 146.059 402.694 147.62C403.818 149.182 405.128 150.565 406.616 151.781C408.12 152.996 409.769 153.856 411.559 154.443C413.351 155.029 415.288 155.342 417.366 155.459C418.853 155.544 420.333 155.579 421.812 155.568C423.292 155.56 424.771 155.508 426.259 155.427C428.339 155.309 430.275 155.005 432.065 154.426C433.858 153.848 435.504 152.996 437.009 151.781C438.496 150.565 439.798 149.182 440.915 147.62C442.031 146.059 442.959 144.32 443.704 142.396C444.466 140.489 445.031 138.851 445.408 137.032C445.785 135.208 445.97 133.2 445.97 130.551V105.544C445.986 105.325 446.011 105.045 446.05 104.712C446.088 104.38 446.14 103.99 446.205 103.551C446.273 103.113 446.347 102.698 446.443 102.311C446.535 101.925 446.644 101.559 446.781 101.225C446.865 100.938 446.959 100.676 447.051 100.434C447.144 100.194 447.236 99.973 447.322 99.772C447.423 99.57 447.507 99.393 447.578 99.233C447.649 99.072 447.708 98.928 447.758 98.795H434.268C434.319 98.795 434.41 98.931 434.547 99.201C434.683 99.471 434.858 99.876 435.079 100.417C435.231 100.855 435.366 101.311 435.485 101.78C435.602 102.249 435.704 102.727 435.791 103.218C435.859 103.725 435.919 104.172 435.968 104.559C436.02 104.946 436.061 105.276 436.094 105.546V133.151C436.094 134.853 435.917 136.426 435.562 137.867C435.207 139.312 434.675 140.627 433.965 141.823C433.255 143.004 432.461 144.042 431.577 144.927C430.692 145.813 429.721 146.549 428.656 147.12C427.575 147.696 426.407 148.131 425.232 148.432C424.058 148.731 422.875 148.891 421.758 148.908H421.763ZM389.578 100.107C388.986 100.478 388.405 100.891 387.823 101.352C387.245 101.812 386.669 102.319 386.095 102.875C385.52 103.431 385.015 103.929 384.578 104.362C384.141 104.799 383.781 105.169 383.491 105.472L374.988 114.905L366.486 124.338L376.544 136.235L386.603 148.131C386.841 148.385 387.136 148.696 387.49 149.069C387.845 149.44 388.26 149.87 388.732 150.36C389.204 150.832 389.68 151.289 390.149 151.729C390.619 152.167 391.083 152.589 391.539 152.996C391.639 153.079 391.767 153.188 391.926 153.327C392.087 153.466 392.281 153.636 392.518 153.837C392.756 154.039 392.95 154.199 393.097 154.322C393.244 154.445 393.345 154.53 393.397 154.581C393.482 154.633 393.551 154.682 393.608 154.733C393.665 154.786 393.716 154.834 393.768 154.887H380.314C380.298 154.887 380.185 154.701 379.992 154.338C379.799 153.976 379.52 153.436 379.165 152.725C378.928 152.338 378.676 151.932 378.4 151.51C378.125 151.088 377.83 150.649 377.508 150.194C377.188 149.739 376.899 149.333 376.645 148.987C376.392 148.641 376.173 148.355 375.988 148.134L366.505 136.845L357.022 125.556V148.134C357.055 148.387 357.098 148.698 357.15 149.064C357.202 149.425 357.259 149.84 357.327 150.295C357.395 150.766 357.489 151.241 357.598 151.72C357.707 152.202 357.835 152.69 357.969 153.197C358.002 153.265 358.045 153.357 358.097 153.474C358.149 153.592 358.206 153.736 358.275 153.905C358.359 154.058 358.428 154.191 358.477 154.306C358.526 154.42 358.561 154.513 358.577 154.581C358.61 154.649 358.637 154.709 358.662 154.759C358.686 154.807 358.714 154.85 358.747 154.887H346.035C346.051 154.887 346.111 154.759 346.214 154.508C346.322 154.254 346.471 153.876 346.677 153.369C346.777 153.115 346.878 152.829 346.971 152.505C347.063 152.18 347.149 151.818 347.217 151.412C347.301 151.025 347.377 150.66 347.44 150.319C347.503 149.976 347.555 149.657 347.588 149.352C347.621 149.066 347.656 148.821 347.686 148.619C347.716 148.417 347.741 148.257 347.757 148.137V105.546C347.757 105.292 347.741 104.981 347.716 104.613C347.692 104.245 347.656 103.823 347.624 103.351C347.591 102.864 347.531 102.406 347.437 101.976C347.345 101.545 347.22 101.142 347.05 100.752C346.998 100.6 346.933 100.43 346.851 100.251C346.772 100.072 346.679 99.875 346.575 99.673C346.458 99.488 346.357 99.319 346.267 99.172C346.176 99.025 346.1 98.897 346.035 98.796H358.747C358.714 98.847 358.686 98.897 358.662 98.948C358.637 98.999 358.61 99.049 358.577 99.1C358.545 99.151 358.501 99.236 358.447 99.345C358.392 99.454 358.324 99.59 358.239 99.743C358.154 99.912 358.086 100.048 358.032 100.157C357.977 100.266 357.934 100.351 357.901 100.418C357.747 100.823 357.614 101.252 357.502 101.712C357.39 102.173 357.308 102.66 357.256 103.183C357.188 103.706 357.139 104.162 357.101 104.554C357.063 104.946 357.038 105.277 357.022 105.546V124.344L364.883 114.947L372.744 105.549C372.963 105.295 373.208 104.974 373.487 104.595C373.766 104.216 374.079 103.778 374.434 103.287C374.773 102.78 375.06 102.276 375.297 101.772C375.535 101.268 375.72 100.772 375.853 100.284C375.87 100.233 375.886 100.156 375.909 100.047C375.931 99.938 375.955 99.794 375.988 99.609C376.02 99.424 376.056 99.271 376.086 99.14C376.116 99.009 376.14 98.9 376.157 98.796H391.776C391.691 98.796 391.471 98.905 391.107 99.126C390.744 99.347 390.237 99.673 389.578 100.113H389.581L389.578 100.105V100.107ZM337.141 100.917V110.636L335.908 109.827L334.674 109.017C333.726 108.393 332.839 107.862 332.004 107.416C331.169 106.969 330.38 106.606 329.637 106.318C328.911 106.048 328.008 105.846 326.924 105.71C325.843 105.574 324.582 105.508 323.146 105.508C321.776 105.541 320.51 105.753 319.33 106.145C318.151 106.539 317.062 107.113 316.046 107.87C315.047 108.631 314.296 109.465 313.794 110.367C313.292 111.268 313.038 112.239 313.038 113.269C313.038 113.876 313.106 114.448 313.238 114.993C313.368 115.538 313.563 116.053 313.816 116.541C314.087 117.012 314.392 117.451 314.739 117.857C315.085 118.263 315.473 118.633 315.913 118.972C316.352 119.326 316.835 119.671 317.359 120.012C317.884 120.356 318.449 120.69 319.057 121.029C319.682 121.383 320.334 121.737 321.014 122.1C321.694 122.462 322.404 122.832 323.149 123.222C325.194 124.301 326.884 125.187 328.229 125.887C329.572 126.587 330.571 127.102 331.229 127.44C331.87 127.778 332.556 128.184 333.281 128.655C334.008 129.127 334.778 129.666 335.588 130.277C336.399 130.868 337.135 131.525 337.794 132.239C338.451 132.952 339.036 133.72 339.543 134.53C340.051 135.355 340.431 136.233 340.685 137.163C340.938 138.092 341.064 139.07 341.064 140.097C340.927 141.498 340.564 142.838 339.983 144.122C339.399 145.402 338.596 146.628 337.583 147.792C336.552 148.939 335.361 149.969 334.008 150.874C332.656 151.781 331.141 152.565 329.469 153.222C327.795 153.898 326.046 154.394 324.219 154.723C322.393 155.054 320.491 155.211 318.514 155.211C317.179 155.179 315.893 155.118 314.665 155.035C313.434 154.95 312.261 154.841 311.144 154.705C310.011 154.552 308.947 154.366 307.945 154.144C306.943 153.92 306.007 153.658 305.125 153.353V142.08L306.899 143.481L308.673 144.882C309.519 145.574 310.338 146.171 311.128 146.678C311.919 147.184 312.677 147.598 313.407 147.918C314.133 148.239 314.946 148.473 315.828 148.634C316.712 148.794 317.665 148.879 318.68 148.895C320.116 148.895 321.451 148.71 322.674 148.334C323.897 147.958 325.002 147.394 325.982 146.633C326.982 145.873 327.732 145.008 328.235 144.018C328.737 143.032 328.99 141.925 328.99 140.693C328.889 140.018 328.712 139.386 328.466 138.794C328.221 138.203 327.91 137.655 327.536 137.148C327.164 136.661 326.741 136.203 326.266 135.781C325.794 135.358 325.267 134.971 324.694 134.617C324.137 134.263 323.444 133.865 322.623 133.432C321.804 132.999 320.857 132.525 319.791 132.018C318.711 131.495 317.881 131.089 317.299 130.802C316.718 130.516 316.377 130.348 316.276 130.295C315.617 129.941 314.873 129.527 314.046 129.065C313.219 128.601 312.304 128.086 311.307 127.527C310.328 126.988 309.441 126.448 308.649 125.915C307.857 125.382 307.167 124.859 306.574 124.353C305.982 123.865 305.45 123.323 304.97 122.732C304.486 122.141 304.057 121.5 303.668 120.808C303.296 120.116 302.99 119.348 302.75 118.5C302.51 117.652 302.332 116.723 302.212 115.71C302.212 114.611 302.355 113.525 302.638 112.448C302.922 111.372 303.345 110.309 303.902 109.263C304.458 108.217 305.128 107.23 305.909 106.301C306.689 105.371 307.587 104.506 308.6 103.693C309.612 102.868 310.704 102.132 311.862 101.492C313.019 100.852 314.245 100.301 315.53 99.846C316.832 99.374 318.159 99.02 319.515 98.784C320.873 98.547 322.259 98.43 323.678 98.43C326.485 98.463 329.012 98.691 331.256 99.105C333.5 99.519 335.462 100.116 337.133 100.895L337.141 100.917Z" fill="white"/>
<path fill-rule="evenodd" clip-rule="evenodd" d="M432.057 101.041C431.246 101.834 430.509 102.82 429.742 103.673C428.972 104.526 428.17 105.242 427.223 105.496C426.529 105.682 426.013 105.379 425.593 104.85C425.173 104.322 424.839 103.572 424.521 102.864C424.367 103.471 423.928 104.627 423.341 105.655C422.754 106.679 422.02 107.573 421.275 107.657C420.295 107.758 419.569 107.15 418.96 106.352C418.351 105.556 417.86 104.567 417.355 103.908C417.219 104.954 417.068 107.907 416.601 110.704C416.137 113.499 415.359 116.142 413.973 116.565C411.996 117.155 411.125 115.063 410.743 112.839C410.364 110.616 410.473 108.262 410.457 108.33C410.441 108.414 410.026 108.651 409.447 108.777C408.868 108.905 408.125 108.918 407.449 108.567C406.267 107.96 405.309 106.575 404.558 105.188C403.804 103.801 403.256 102.409 402.885 101.785C402.58 103.322 402.429 104.889 402.284 106.194C402.14 107.499 402.006 108.534 401.736 109.008C401.449 109.515 400.901 109.608 400.31 109.573C399.724 109.539 399.098 109.379 398.659 109.379C399.066 110.763 399.486 112.24 399.678 113.534C399.868 114.829 399.825 115.943 399.301 116.602C398.761 117.278 398.244 117.666 397.66 117.864C397.076 118.063 396.426 118.071 395.615 117.987C396.898 118.679 398.607 121.025 399.964 123.425C401.321 125.826 402.325 128.281 402.208 129.192C402.09 130.101 400.644 130.704 398.97 131.085C397.297 131.47 395.395 131.638 394.365 131.687C395.466 132.278 396.445 132.801 397.41 133.324C398.373 133.847 399.32 134.372 400.349 134.962C401.381 135.554 402.344 136.303 403.264 136.992C404.187 137.679 405.063 138.303 405.925 138.643C406.788 138.998 407.719 139.2 408.562 139.368C409.408 139.537 410.167 139.673 410.691 139.891C410.49 140.902 410.116 142.052 409.673 143.132C409.229 144.21 408.713 145.224 408.224 145.965C407.736 146.709 407.167 147.669 406.499 148.48C405.83 149.289 405.063 149.949 404.165 150.083L404.653 151.532L405.142 152.982C405.904 153.033 406.351 152.619 406.646 152.079C406.941 151.54 407.086 150.873 407.238 150.417C407.392 149.963 408.521 147.979 409.758 145.861C410.992 143.745 412.327 141.491 412.886 140.494C412.886 140.494 413.629 141.278 414.546 142.159C415.463 143.041 416.552 144.02 417.246 144.407C417.955 144.813 418.988 145.132 420.098 145.474C421.209 145.818 422.402 146.181 423.434 146.668C424.465 147.139 425.26 147.57 426.038 147.998C426.816 148.423 427.578 148.845 428.538 149.3C427.998 148.355 427.144 147.055 426.496 145.805C425.85 144.551 425.411 143.346 425.699 142.586C425.986 141.81 426.832 141.305 427.957 140.984C429.081 140.662 430.484 140.529 431.888 140.497C433.307 140.444 434.94 140.537 436.419 140.649C437.899 140.758 439.225 140.886 440.036 140.902C439.511 140.142 438.963 139.603 438.57 139.046C438.177 138.491 437.94 137.917 438.043 137.09C438.128 136.264 439.684 135.428 441.217 134.799C442.752 134.169 444.264 133.75 444.264 133.75C444.264 133.75 443.901 133.404 443.609 132.886C443.317 132.369 443.099 131.676 443.385 130.984C443.655 130.292 444.526 129.414 445.588 128.526C446.65 127.635 447.9 126.733 448.932 125.992C448.069 126.061 446.557 126.21 445.001 126.248C443.446 126.287 441.848 126.21 440.816 125.823C439.785 125.453 439.253 124.769 438.982 124.178C438.712 123.586 438.704 123.09 438.721 123.09C438.737 123.09 436.826 124.551 434.797 125.537C432.77 126.524 430.621 127.039 430.166 125.151C429.794 123.649 431.383 121.54 433.269 119.619C435.155 117.701 437.333 115.97 438.144 115.226C437.063 115.125 435.702 115.194 434.606 115.085C433.511 114.976 432.685 114.687 432.668 113.878C432.635 112.698 433.253 111.321 433.877 110.243C434.503 109.163 435.136 108.379 435.136 108.379C435.136 108.379 434.358 108.472 433.52 108.434C432.685 108.395 431.786 108.226 431.552 107.703C431.164 106.842 431.164 105.78 431.322 104.633C431.484 103.485 431.805 102.254 432.057 101.054V101.041Z" fill="white"/>
<path d="M405.274 153.45C405.223 153.45 405.168 153.45 405.116 153.445L404.802 153.423L403.541 149.696L404.095 149.611C404.753 149.513 405.419 149.041 406.137 148.175C406.623 147.584 407.065 146.894 407.455 146.284C407.586 146.08 407.711 145.883 407.832 145.701C408.302 144.989 408.801 144.012 409.24 142.946C409.631 141.995 409.948 141.03 410.147 140.188C409.764 140.077 409.287 139.982 408.757 139.878L408.473 139.821C407.63 139.652 406.655 139.442 405.749 139.069C404.824 138.706 403.913 138.055 402.984 137.36L402.627 137.093C401.821 136.488 400.989 135.864 400.115 135.363C399.193 134.834 398.287 134.33 397.183 133.73C396.509 133.366 395.827 132.998 395.103 132.611L392.657 131.297L394.341 131.216C395.537 131.158 397.355 130.971 398.865 130.625C400.596 130.227 401.671 129.668 401.742 129.126C401.824 128.494 401.087 126.36 399.555 123.649C398.046 120.976 396.449 118.962 395.393 118.392L395.663 117.512C396.495 117.6 397.05 117.57 397.509 117.411C398.016 117.24 398.456 116.896 398.933 116.3C399.31 115.826 399.405 114.913 399.212 113.594C399.031 112.363 398.633 110.956 398.207 109.502L398.03 108.902H398.657C398.922 108.902 399.22 108.949 399.536 108.998C399.804 109.038 400.077 109.082 400.336 109.096C401.022 109.136 401.22 108.952 401.325 108.768C401.573 108.333 401.721 107.011 401.816 106.133L401.868 105.668C401.998 104.447 402.149 103.063 402.424 101.687L402.662 100.488L403.287 101.54C403.473 101.851 403.694 102.324 403.945 102.875C404.239 103.51 404.573 104.231 404.968 104.962C405.88 106.643 406.762 107.685 407.66 108.147C408.258 108.461 408.907 108.414 409.344 108.317C409.666 108.245 409.907 108.142 410.027 108.077L410.081 107.805L410.518 107.859C410.933 107.913 410.928 108.314 410.928 108.485C410.908 110.118 411 111.553 411.208 112.755C411.502 114.469 412.011 115.594 412.677 116.008C413.008 116.213 413.386 116.245 413.839 116.109C414.385 115.943 415.408 115.008 416.14 110.622C416.457 108.712 416.626 106.755 416.748 105.325C416.804 104.682 416.847 104.175 416.891 103.839L417.035 102.716L417.729 103.616C417.988 103.954 418.234 104.354 418.494 104.78C418.76 105.215 419.034 105.665 419.333 106.06C419.978 106.904 420.565 107.251 421.228 107.18C421.698 107.128 422.322 106.482 422.934 105.409C423.475 104.466 423.911 103.351 424.064 102.742L424.392 101.433L425.001 102.777C425.295 103.425 425.598 104.095 425.962 104.548C426.42 105.122 426.797 105.117 427.106 105.033C428.004 104.793 428.767 104.047 429.396 103.349C429.685 103.03 429.969 102.689 430.255 102.349C430.725 101.785 431.213 101.204 431.732 100.695L432.84 99.614L432.521 101.129C432.445 101.489 432.363 101.852 432.281 102.213C432.095 103.037 431.902 103.89 431.792 104.674C431.617 105.92 431.68 106.814 431.983 107.489C432.065 107.669 432.524 107.897 433.545 107.944C434.328 107.98 435.073 107.892 435.081 107.892L436.225 107.756L435.502 108.65C435.502 108.65 434.883 109.421 434.284 110.454C433.509 111.791 433.114 112.963 433.138 113.843C433.141 114.026 433.149 114.445 434.656 114.598C435.196 114.653 435.824 114.661 436.432 114.672C437.028 114.68 437.645 114.691 438.19 114.742L439.244 114.84L438.464 115.555C438.226 115.773 437.874 116.072 437.448 116.435C436.386 117.339 434.934 118.577 433.605 119.927C430.804 122.778 430.438 124.269 430.624 125.018C430.722 125.419 430.905 125.677 431.192 125.814C431.825 126.113 433.034 125.859 434.593 125.099C436.321 124.261 438.027 123.023 438.366 122.759L438.464 122.604H439.094L439.179 122.966C439.201 123.064 439.217 123.132 439.193 123.211C439.209 123.358 439.263 123.645 439.411 123.966C439.714 124.631 440.243 125.099 440.978 125.363C441.802 125.675 443.148 125.805 444.99 125.761C446.224 125.731 447.428 125.628 448.307 125.555L450.564 125.374L449.205 126.353C448.203 127.075 446.953 127.974 445.891 128.868C444.729 129.846 444.032 130.609 443.824 131.138C443.639 131.581 443.707 132.083 444.021 132.642C444.272 133.088 444.589 133.394 444.591 133.397L445.184 133.966L444.393 134.187C444.379 134.189 442.885 134.609 441.398 135.219C438.726 136.315 438.526 136.999 438.513 137.124C438.425 137.838 438.627 138.295 438.957 138.764C439.121 138.999 439.323 139.239 439.539 139.492C439.815 139.819 440.126 140.186 440.429 140.626L440.948 141.38L440.031 141.361C439.449 141.351 438.624 141.282 437.669 141.205C437.262 141.173 436.831 141.138 436.386 141.105C435.07 141.007 433.37 140.903 431.907 140.955C430.337 140.994 429.054 141.151 428.088 141.426C427.007 141.735 426.352 142.178 426.141 142.743C425.948 143.258 426.209 144.211 426.917 145.585C427.329 146.383 427.834 147.211 428.279 147.945C428.528 148.35 428.756 148.729 428.948 149.065L429.691 150.359L428.341 149.721C427.419 149.285 426.666 148.871 425.943 148.476L425.815 148.407C424.993 147.958 424.234 147.55 423.24 147.094C422.257 146.628 421.13 146.283 420.038 145.944L419.962 145.923C418.891 145.593 417.786 145.252 417.014 144.814C416.405 144.473 415.465 143.693 414.219 142.495C413.729 142.026 413.288 141.581 412.983 141.269C412.604 141.928 412.073 142.832 411.48 143.84C411.055 144.568 410.602 145.339 410.163 146.094C409.593 147.075 407.851 150.058 407.684 150.562C407.646 150.68 407.605 150.813 407.564 150.952C407.447 151.359 407.3 151.86 407.06 152.298C406.642 153.064 406.039 153.448 405.272 153.448H405.274V153.451V153.45ZM404.772 150.402L405.479 152.495C405.793 152.434 406.031 152.231 406.241 151.849C406.431 151.5 406.557 151.069 406.669 150.688C406.715 150.535 406.756 150.391 406.797 150.263C406.937 149.846 407.7 148.457 409.354 145.619C409.793 144.865 410.247 144.091 410.676 143.364C411.45 142.039 412.122 140.898 412.48 140.26L412.791 139.705L413.23 140.167C413.23 140.167 413.978 140.955 414.876 141.818C416.048 142.944 416.948 143.699 417.48 143.996C418.163 144.386 419.219 144.71 420.241 145.023L420.317 145.045C421.438 145.391 422.598 145.747 423.639 146.241C424.654 146.707 425.43 147.124 426.268 147.582L426.396 147.652C426.702 147.819 426.999 147.982 427.307 148.148C426.901 147.475 426.458 146.739 426.084 146.014C425.224 144.35 424.966 143.208 425.262 142.415C425.579 141.56 426.445 140.922 427.831 140.527C428.874 140.23 430.234 140.061 431.88 140.02C433.383 139.969 435.117 140.073 436.457 140.173C436.902 140.206 437.336 140.241 437.745 140.274C438.22 140.311 438.66 140.348 439.05 140.375C438.974 140.282 438.895 140.189 438.821 140.1C438.594 139.83 438.379 139.574 438.19 139.31C437.813 138.777 437.448 138.089 437.582 137.023C437.672 136.134 438.772 135.288 441.043 134.355C441.96 133.979 442.861 133.68 443.454 133.495C443.371 133.378 443.287 133.247 443.205 133.104C442.749 132.295 442.665 131.497 442.956 130.794C443.224 130.108 443.97 129.265 445.291 128.156C445.923 127.625 446.633 127.083 447.308 126.584C446.612 126.636 445.823 126.685 445.017 126.707C443.028 126.756 441.602 126.606 440.658 126.251C439.44 125.813 438.846 124.982 438.562 124.363C438.523 124.282 438.455 124.115 438.395 123.917C438.228 124.034 438.027 124.167 437.786 124.328C437.112 124.778 436.086 125.426 435.011 125.949C433.108 126.873 431.732 127.11 430.796 126.669C430.245 126.41 429.881 125.933 429.715 125.249C429.357 123.805 430.411 121.854 432.938 119.281C434.295 117.903 435.767 116.646 436.842 115.731C436.883 115.696 436.924 115.663 436.962 115.627C436.782 115.625 436.602 115.619 436.421 115.619C435.794 115.608 435.144 115.6 434.566 115.541C433.99 115.483 432.234 115.306 432.204 113.879C432.174 112.813 432.603 111.508 433.476 109.998C433.719 109.579 433.963 109.203 434.172 108.897C433.965 108.9 433.738 108.9 433.506 108.889C432.185 108.83 431.41 108.5 431.132 107.884C430.749 107.042 430.665 105.982 430.867 104.554C430.952 103.941 431.083 103.306 431.222 102.674C431.14 102.77 431.061 102.865 430.982 102.96C430.689 103.309 430.397 103.658 430.1 103.987C429.379 104.789 428.487 105.644 427.354 105.949C426.548 106.165 425.836 105.891 425.233 105.146C424.996 104.848 424.788 104.496 424.597 104.124C424.378 104.677 424.089 105.301 423.753 105.886C422.956 107.278 422.14 108.031 421.332 108.123C420 108.26 419.126 107.342 418.592 106.638C418.264 106.208 417.974 105.739 417.699 105.285C417.696 105.328 417.691 105.371 417.688 105.415C417.562 106.859 417.393 108.838 417.071 110.786C416.435 114.616 415.496 116.598 414.117 117.017C413.4 117.233 412.75 117.165 412.188 116.816C411.274 116.249 410.634 114.941 410.29 112.925C410.102 111.826 410.005 110.548 409.997 109.121C409.816 109.18 409.653 109.219 409.557 109.241C408.967 109.369 408.085 109.431 407.239 108.987C406.17 108.437 405.16 107.27 404.155 105.418C403.748 104.669 403.399 103.911 403.115 103.298C402.989 104.159 402.896 105.003 402.815 105.783L402.763 106.249C402.613 107.606 402.473 108.685 402.155 109.244C401.654 110.124 400.631 110.061 400.295 110.044C399.993 110.028 399.679 109.979 399.405 109.935C399.375 109.93 399.345 109.927 399.315 109.922C399.673 111.17 399.993 112.372 400.153 113.469C400.39 115.077 400.235 116.2 399.681 116.894C399.091 117.63 398.502 118.078 397.824 118.309C397.574 118.396 397.306 118.451 397.012 118.481C398.483 119.935 399.907 122.348 400.385 123.194C401.543 125.243 402.839 128.059 402.687 129.252C402.555 130.268 401.379 131.017 399.088 131.543C398.106 131.77 397.001 131.93 396.007 132.031C396.57 132.333 397.11 132.623 397.645 132.914C398.756 133.516 399.665 134.023 400.596 134.557C401.521 135.086 402.375 135.728 403.205 136.35L403.56 136.617C404.401 137.244 405.288 137.884 406.113 138.206C406.948 138.548 407.87 138.748 408.669 138.908L408.951 138.966C409.717 139.116 410.379 139.246 410.889 139.462L411.243 139.609L411.168 139.985C410.968 140.985 410.605 142.135 410.125 143.312C409.666 144.432 409.134 145.464 408.635 146.227C408.517 146.408 408.394 146.598 408.266 146.8C407.862 147.432 407.404 148.148 406.883 148.783C406.186 149.625 405.501 150.165 404.794 150.415H404.791L404.772 150.402Z" fill="white"/>
<path fill-rule="evenodd" clip-rule="evenodd" d="M431.549 107.687C431.786 108.21 432.682 108.379 433.517 108.417C434.352 108.456 435.133 108.363 435.133 108.363C435.133 108.363 434.5 109.147 433.875 110.227C433.25 111.305 432.632 112.681 432.665 113.861C432.682 114.671 433.509 114.959 434.604 115.068C435.699 115.178 437.058 115.109 438.141 115.21C437.33 115.951 435.149 117.682 433.266 119.603C431.379 121.521 429.791 123.633 430.163 125.134C430.619 127.025 432.767 126.51 434.794 125.521C436.823 124.535 438.734 123.074 438.718 123.074C438.701 123.074 438.71 123.572 438.979 124.161C439.25 124.753 439.782 125.437 440.813 125.807C441.846 126.194 443.443 126.271 444.998 126.232C446.554 126.194 448.066 126.042 448.929 125.976C447.897 126.717 446.647 127.622 445.586 128.51C444.523 129.401 443.653 130.278 443.382 130.968C443.096 131.66 443.314 132.352 443.606 132.87C443.899 133.388 444.261 133.733 444.261 133.733C444.261 133.733 442.749 134.156 441.215 134.783C439.681 135.412 438.125 136.245 438.04 137.074C437.94 137.899 438.177 138.475 438.567 139.03C438.96 139.587 439.509 140.129 440.033 140.886C439.223 140.87 437.893 140.745 436.416 140.633C434.937 140.524 433.307 140.431 431.885 140.48C430.481 140.513 429.079 140.649 427.955 140.968C426.83 141.289 425.986 141.793 425.696 142.57C425.41 143.33 425.85 144.535 426.494 145.788C427.141 147.042 427.996 148.341 428.536 149.284C427.572 148.829 426.811 148.406 426.035 147.981C425.257 147.557 424.463 147.126 423.431 146.652C422.4 146.164 421.209 145.799 420.095 145.458C418.985 145.115 417.952 144.796 417.243 144.391C416.55 144.004 415.46 143.023 414.543 142.142C413.626 141.259 412.883 140.478 412.883 140.478C412.327 141.475 410.989 143.725 409.755 145.845C408.521 147.963 407.389 149.947 407.236 150.401C407.083 150.856 406.941 151.524 406.644 152.063C406.348 152.603 405.901 153.017 405.14 152.965L404.652 151.516L404.163 150.067C405.057 149.929 405.828 149.273 406.497 148.464C407.166 147.654 407.73 146.693 408.222 145.949C408.71 145.208 409.226 144.194 409.671 143.115C410.116 142.036 410.487 140.889 410.689 139.875C410.165 139.657 409.406 139.521 408.559 139.352C407.713 139.184 406.785 138.982 405.923 138.627C405.06 138.289 404.182 137.666 403.262 136.976C402.34 136.29 401.377 135.538 400.347 134.946C399.315 134.354 398.371 133.831 397.407 133.308C396.443 132.785 395.464 132.262 394.363 131.671C395.396 131.622 397.298 131.452 398.969 131.068C400.642 130.684 402.086 130.085 402.206 129.174C402.324 128.265 401.319 125.81 399.962 123.409C398.605 121.009 396.897 118.662 395.614 117.97C396.424 118.055 397.077 118.047 397.658 117.848C398.239 117.649 398.759 117.262 399.299 116.586C399.823 115.93 399.864 114.815 399.676 113.518C399.484 112.224 399.061 110.747 398.657 109.363C399.097 109.363 399.722 109.523 400.309 109.556C400.896 109.589 401.447 109.496 401.734 108.992C402.004 108.52 402.141 107.483 402.283 106.178C402.424 104.872 402.578 103.305 402.883 101.769C403.254 102.393 403.805 103.785 404.556 105.172C405.31 106.559 406.261 107.943 407.446 108.551C408.123 108.905 408.865 108.888 409.444 108.76C410.023 108.632 410.438 108.398 410.454 108.314C410.471 108.245 410.362 110.6 410.741 112.823C411.12 115.047 411.991 117.139 413.97 116.548C415.356 116.125 416.135 113.486 416.599 110.687C417.063 107.891 417.216 104.938 417.352 103.892C417.86 104.548 418.351 105.537 418.958 106.335C419.566 107.131 420.292 107.741 421.272 107.64C422.015 107.557 422.751 106.663 423.338 105.638C423.925 104.613 424.364 103.458 424.518 102.847C424.839 103.556 425.17 104.308 425.59 104.834C426.011 105.36 426.529 105.665 427.22 105.48C428.167 105.226 428.97 104.51 429.74 103.657C430.509 102.804 431.243 101.817 432.054 101.025C431.8 102.224 431.479 103.455 431.32 104.602C431.159 105.749 431.159 106.813 431.549 107.674V107.687ZM412.837 138.48L412.853 138.513L412.87 138.545L412.922 138.529L412.974 138.513L413.007 138.529L413.039 138.545L419.615 142.714L426.19 146.883L426.259 146.783L426.328 146.682L419.836 142.548L413.345 138.414L419.549 136.237L425.754 134.06L425.737 134.077L425.721 134.093L431.688 136.946L437.655 139.799L437.723 139.681L437.792 139.565L431.926 136.763L426.06 133.962L430.253 132.494L434.446 131.025L438.654 132.241L442.864 133.455L442.88 133.338L442.896 133.221L438.889 132.057L434.882 130.894L439.853 129.155L444.824 127.418L444.791 127.301L444.759 127.183L439.787 128.905L434.816 130.627L436.776 127.657L438.737 124.687L438.619 124.619L438.502 124.551L436.457 127.674L434.413 130.796L423.83 134.474L413.246 138.153L417.423 130.188L421.6 122.224L428.53 119.289L435.461 116.354L435.409 116.218L435.357 116.082L428.579 118.968L421.801 121.854L424.117 117.398L426.431 112.943L430.031 111.341L433.632 109.739L433.564 109.622L433.495 109.504L430.064 111.041L426.633 112.578L428.339 109.302L430.045 106.028L429.928 105.959L429.811 105.892L428.085 109.183L426.36 112.475L425.767 108.981L425.175 105.488L425.039 105.521L424.902 105.554L425.528 109.216L426.152 112.878L423.854 117.298L421.556 121.718L420.035 114.327L418.515 106.938L418.378 106.97L418.242 107.003L419.798 114.545L421.354 122.087L417.177 130.069L413.001 138.05L411.328 132.11L409.654 126.17L409.687 126.101L409.72 126.034L409.652 126L409.584 125.968L408.551 122.289L407.52 118.611L408.77 114.191L410.02 109.771L409.884 109.739L409.747 109.706L408.566 113.924L407.385 118.142L405.678 112.049L403.971 105.957L403.854 105.989L403.737 106.023L405.393 111.927L407.05 117.832L403.874 114.322L400.696 110.812L400.596 110.897L400.495 110.982L403.858 114.692L407.219 118.403L408.234 122.066L409.245 125.728L404.023 122.235L398.802 118.742L398.718 118.843L398.633 118.944L403.991 122.537L409.348 126.131L411.038 132.123L412.728 138.112L405.661 135.194L398.594 132.276L398.526 132.393L398.458 132.51L405.626 135.464L412.793 138.417V138.45L412.81 138.467L412.826 138.483V138.475L412.837 138.48Z" fill="url(#paint9_linear_289_1483)"/>
<path d="M291.999 89.532C376.676 87.498 462.32 87.481 546.998 89.532C462.32 91.582 376.676 91.566 291.999 89.532Z" fill="white"/>
<path d="M291.999 164.469C376.676 162.435 462.32 162.418 546.998 164.469C462.32 166.518 376.676 166.502 291.999 164.469Z" fill="white"/>
<defs>
<filter id="filter0_d_289_1483" x="224.583" y="4.70099" width="67.1598" height="45.3" filterUnits="userSpaceOnUse" color-interpolation-filters="sRGB">
<feFlood flood-opacity="0" result="BackgroundImageFix"/>
<feColorMatrix in="SourceAlpha" type="matrix" values="0 0 0 0 0 0 0 0 0 0 0 0 0 0 0 0 0 0 127 0" result="hardAlpha"/>
<feOffset dy="8"/>
<feGaussianBlur stdDeviation="5"/>
<feColorMatrix type="matrix" values="0 0 0 0 0 0 0 0 0 0 0 0 0 0 0 0 0 0 0.25 0"/>
<feBlend mode="normal" in2="BackgroundImageFix" result="effect1_dropShadow_289_1483"/>
<feBlend mode="normal" in="SourceGraphic" in2="effect1_dropShadow_289_1483" result="shape"/>
</filter>
<linearGradient id="paint0_linear_289_1483" x1="39.4999" y1="262.219" x2="39.4999" y2="-33.804" gradientUnits="userSpaceOnUse">
<stop stop-color="#C5BEBE"/>
<stop offset="0.045" stop-color="#C9C3C3"/>
<stop offset="0.101" stop-color="#D7D2D2"/>
<stop offset="0.163" stop-color="#EEECEC"/>
<stop offset="0.2" stop-color="white"/>
<stop offset="0.24" stop-color="#FBFBFB"/>
<stop offset="0.272" stop-color="#F2F1F1"/>
<stop offset="0.301" stop-color="#E1E0E0"/>
<stop offset="0.329" stop-color="#CAC9C9"/>
<stop offset="0.355" stop-color="#ABAAAA"/>
<stop offset="0.381" stop-color="#878585"/>
<stop offset="0.4" stop-color="#666363"/>
<stop offset="0.419" stop-color="#878585"/>
<stop offset="0.445" stop-color="#ABAAAA"/>
<stop offset="0.471" stop-color="#CAC9C9"/>
<stop offset="0.499" stop-color="#E1E0E0"/>
<stop offset="0.528" stop-color="#F2F1F1"/>
<stop offset="0.56" stop-color="#FBFBFB"/>
<stop offset="0.6" stop-color="white"/>
<stop offset="0.628" stop-color="#EAE8E8"/>
<stop offset="0.666" stop-color="#D5D0D1"/>
<stop offset="0.701" stop-color="#C8C2C2"/>
<stop offset="0.731" stop-color="#C4BDBE"/>
<stop offset="0.86" stop-color="#C5BEBE"/>
<stop offset="1" stop-color="#6E6E6E"/>
</linearGradient>
<linearGradient id="paint1_linear_289_1483" x1="39.3109" y1="0.75" x2="39.3109" y2="253.25" gradientUnits="userSpaceOnUse">
<stop stop-color="#C5BEBE"/>
<stop offset="0.045" stop-color="#C9C3C3"/>
<stop offset="0.101" stop-color="#D7D2D2"/>
<stop offset="0.163" stop-color="#EEECEC"/>
<stop offset="0.2" stop-color="white"/>
<stop offset="0.24" stop-color="#FBFBFB"/>
<stop offset="0.272" stop-color="#F2F1F1"/>
<stop offset="0.301" stop-color="#E1E0E0"/>
<stop offset="0.329" stop-color="#CAC9C9"/>
<stop offset="0.355" stop-color="#ABAAAA"/>
<stop offset="0.381" stop-color="#878585"/>
<stop offset="0.4" stop-color="#666363"/>
<stop offset="0.419" stop-color="#878585"/>
<stop offset="0.445" stop-color="#ABAAAA"/>
<stop offset="0.471" stop-color="#CAC9C9"/>
<stop offset="0.499" stop-color="#E1E0E0"/>
<stop offset="0.528" stop-color="#F2F1F1"/>
<stop offset="0.56" stop-color="#FBFBFB"/>
<stop offset="0.6" stop-color="white"/>
<stop offset="0.628" stop-color="#EAE8E8"/>
<stop offset="0.666" stop-color="#D5D0D1"/>
<stop offset="0.701" stop-color="#C8C2C2"/>
<stop offset="0.731" stop-color="#C4BDBE"/>
<stop offset="0.86" stop-color="#C5BEBE"/>
<stop offset="1" stop-color="#6E6E6E"/>
</linearGradient>
<linearGradient id="paint2_linear_289_1483" x1="182.999" y1="262.219" x2="182.999" y2="-33.804" gradientUnits="userSpaceOnUse">
<stop stop-color="#C5BEBE"/>
<stop offset="0.045" stop-color="#C9C3C3"/>
<stop offset="0.101" stop-color="#D7D2D2"/>
<stop offset="0.163" stop-color="#EEECEC"/>
<stop offset="0.2" stop-color="white"/>
<stop offset="0.24" stop-color="#FBFBFB"/>
<stop offset="0.272" stop-color="#F2F1F1"/>
<stop offset="0.301" stop-color="#E1E0E0"/>
<stop offset="0.329" stop-color="#CAC9C9"/>
<stop offset="0.355" stop-color="#ABAAAA"/>
<stop offset="0.381" stop-color="#878585"/>
<stop offset="0.4" stop-color="#666363"/>
<stop offset="0.419" stop-color="#878585"/>
<stop offset="0.445" stop-color="#ABAAAA"/>
<stop offset="0.471" stop-color="#CAC9C9"/>
<stop offset="0.499" stop-color="#E1E0E0"/>
<stop offset="0.528" stop-color="#F2F1F1"/>
<stop offset="0.56" stop-color="#FBFBFB"/>
<stop offset="0.6" stop-color="white"/>
<stop offset="0.628" stop-color="#EAE8E8"/>
<stop offset="0.666" stop-color="#D5D0D1"/>
<stop offset="0.701" stop-color="#C8C2C2"/>
<stop offset="0.731" stop-color="#C4BDBE"/>
<stop offset="0.86" stop-color="#C5BEBE"/>
<stop offset="1" stop-color="#6E6E6E"/>
</linearGradient>
<linearGradient id="paint3_linear_289_1483" x1="128.44" y1="-4.872" x2="260.642" y2="224.108" gradientUnits="userSpaceOnUse">
<stop stop-color="#C5BEBE"/>
<stop offset="0.045" stop-color="#C9C3C3"/>
<stop offset="0.101" stop-color="#D7D2D2"/>
<stop offset="0.163" stop-color="#EEECEC"/>
<stop offset="0.2" stop-color="white"/>
<stop offset="0.24" stop-color="#FBFBFB"/>
<stop offset="0.272" stop-color="#F2F1F1"/>
<stop offset="0.301" stop-color="#E1E0E0"/>
<stop offset="0.329" stop-color="#CAC9C9"/>
<stop offset="0.355" stop-color="#ABAAAA"/>
<stop offset="0.381" stop-color="#878585"/>
<stop offset="0.4" stop-color="#666363"/>
<stop offset="0.419" stop-color="#878585"/>
<stop offset="0.445" stop-color="#ABAAAA"/>
<stop offset="0.471" stop-color="#CAC9C9"/>
<stop offset="0.499" stop-color="#E1E0E0"/>
<stop offset="0.528" stop-color="#F2F1F1"/>
<stop offset="0.56" stop-color="#FBFBFB"/>
<stop offset="0.6" stop-color="white"/>
<stop offset="0.628" stop-color="#EAE8E8"/>
<stop offset="0.666" stop-color="#D5D0D1"/>
<stop offset="0.701" stop-color="#C8C2C2"/>
<stop offset="0.731" stop-color="#C4BDBE"/>
<stop offset="0.86" stop-color="#C5BEBE"/>
<stop offset="1" stop-color="#6E6E6E"/>
</linearGradient>
<linearGradient id="paint4_linear_289_1483" x1="312.965" y1="262.219" x2="312.965" y2="-33.804" gradientUnits="userSpaceOnUse">
<stop stop-color="#6E6E6E"/>
<stop offset="0.14" stop-color="#C5BEBE"/>
<stop offset="0.269" stop-color="#C4BDBE"/>
<stop offset="0.299" stop-color="#C8C2C2"/>
<stop offset="0.334" stop-color="#D5D0D1"/>
<stop offset="0.372" stop-color="#EAE8E8"/>
<stop offset="0.4" stop-color="white"/>
<stop offset="0.44" stop-color="#FBFBFB"/>
<stop offset="0.472" stop-color="#F2F1F1"/>
<stop offset="0.501" stop-color="#E1E0E0"/>
<stop offset="0.529" stop-color="#CAC9C9"/>
<stop offset="0.555" stop-color="#ABAAAA"/>
<stop offset="0.581" stop-color="#878585"/>
<stop offset="0.6" stop-color="#666363"/>
<stop offset="0.619" stop-color="#878585"/>
<stop offset="0.645" stop-color="#ABAAAA"/>
<stop offset="0.671" stop-color="#CAC9C9"/>
<stop offset="0.699" stop-color="#E1E0E0"/>
<stop offset="0.728" stop-color="#F2F1F1"/>
<stop offset="0.76" stop-color="#FBFBFB"/>
<stop offset="0.8" stop-color="white"/>
<stop offset="0.837" stop-color="#EEECEC"/>
<stop offset="0.899" stop-color="#D7D2D2"/>
<stop offset="0.955" stop-color="#C9C3C3"/>
<stop offset="1" stop-color="#C5BEBE"/>
</linearGradient>
<linearGradient id="paint5_linear_289_1483" x1="313.192" y1="253.25" x2="313.192" y2="0.749993" gradientUnits="userSpaceOnUse">
<stop stop-color="#C5BEBE"/>
<stop offset="0.045" stop-color="#C9C3C3"/>
<stop offset="0.101" stop-color="#D7D2D2"/>
<stop offset="0.163" stop-color="#EEECEC"/>
<stop offset="0.2" stop-color="white"/>
<stop offset="0.24" stop-color="#FBFBFB"/>
<stop offset="0.272" stop-color="#F2F1F1"/>
<stop offset="0.301" stop-color="#E1E0E0"/>
<stop offset="0.329" stop-color="#CAC9C9"/>
<stop offset="0.355" stop-color="#ABAAAA"/>
<stop offset="0.381" stop-color="#878585"/>
<stop offset="0.4" stop-color="#666363"/>
<stop offset="0.419" stop-color="#878585"/>
<stop offset="0.445" stop-color="#ABAAAA"/>
<stop offset="0.471" stop-color="#CAC9C9"/>
<stop offset="0.499" stop-color="#E1E0E0"/>
<stop offset="0.528" stop-color="#F2F1F1"/>
<stop offset="0.56" stop-color="#FBFBFB"/>
<stop offset="0.6" stop-color="white"/>
<stop offset="0.628" stop-color="#EAE8E8"/>
<stop offset="0.666" stop-color="#D5D0D1"/>
<stop offset="0.701" stop-color="#C8C2C2"/>
<stop offset="0.731" stop-color="#C4BDBE"/>
<stop offset="0.86" stop-color="#C5BEBE"/>
<stop offset="1" stop-color="#6E6E6E"/>
</linearGradient>
<linearGradient id="paint6_linear_289_1483" x1="258.163" y1="59.331" x2="258.163" y2="-0.540012" gradientUnits="userSpaceOnUse">
<stop stop-color="#C5BEBE"/>
<stop offset="0.045" stop-color="#C9C3C3"/>
<stop offset="0.101" stop-color="#D7D2D2"/>
<stop offset="0.163" stop-color="#EEECEC"/>
<stop offset="0.2" stop-color="white"/>
<stop offset="0.24" stop-color="#FBFBFB"/>
<stop offset="0.272" stop-color="#F2F1F1"/>
<stop offset="0.301" stop-color="#E1E0E0"/>
<stop offset="0.329" stop-color="#CAC9C9"/>
<stop offset="0.355" stop-color="#ABAAAA"/>
<stop offset="0.381" stop-color="#878585"/>
<stop offset="0.4" stop-color="#666363"/>
<stop offset="0.419" stop-color="#878585"/>
<stop offset="0.445" stop-color="#ABAAAA"/>
<stop offset="0.471" stop-color="#CAC9C9"/>
<stop offset="0.499" stop-color="#E1E0E0"/>
<stop offset="0.528" stop-color="#F2F1F1"/>
<stop offset="0.56" stop-color="#FBFBFB"/>
<stop offset="0.6" stop-color="white"/>
<stop offset="0.628" stop-color="#EAE8E8"/>
<stop offset="0.666" stop-color="#D5D0D1"/>
<stop offset="0.701" stop-color="#C8C2C2"/>
<stop offset="0.731" stop-color="#C4BDBE"/>
<stop offset="0.86" stop-color="#C5BEBE"/>
<stop offset="1" stop-color="#6E6E6E"/>
</linearGradient>
<linearGradient id="paint7_linear_289_1483" x1="184.574" y1="262.219" x2="184.574" y2="-33.804" gradientUnits="userSpaceOnUse">
<stop stop-color="#C5BEBE"/>
<stop offset="0.045" stop-color="#C9C3C3"/>
<stop offset="0.101" stop-color="#D7D2D2"/>
<stop offset="0.163" stop-color="#EEECEC"/>
<stop offset="0.2" stop-color="white"/>
<stop offset="0.24" stop-color="#FBFBFB"/>
<stop offset="0.272" stop-color="#F2F1F1"/>
<stop offset="0.301" stop-color="#E1E0E0"/>
<stop offset="0.329" stop-color="#CAC9C9"/>
<stop offset="0.355" stop-color="#ABAAAA"/>
<stop offset="0.381" stop-color="#878585"/>
<stop offset="0.4" stop-color="#666363"/>
<stop offset="0.419" stop-color="#878585"/>
<stop offset="0.445" stop-color="#ABAAAA"/>
<stop offset="0.471" stop-color="#CAC9C9"/>
<stop offset="0.499" stop-color="#E1E0E0"/>
<stop offset="0.528" stop-color="#F2F1F1"/>
<stop offset="0.56" stop-color="#FBFBFB"/>
<stop offset="0.6" stop-color="white"/>
<stop offset="0.628" stop-color="#EAE8E8"/>
<stop offset="0.666" stop-color="#D5D0D1"/>
<stop offset="0.701" stop-color="#C8C2C2"/>
<stop offset="0.731" stop-color="#C4BDBE"/>
<stop offset="0.86" stop-color="#C5BEBE"/>
<stop offset="1" stop-color="#6E6E6E"/>
</linearGradient>
<linearGradient id="paint8_linear_289_1483" x1="184.183" y1="208.567" x2="184.183" y2="0.750005" gradientUnits="userSpaceOnUse">
<stop stop-color="#6E6E6E"/>
<stop offset="0.14" stop-color="#C5BEBE"/>
<stop offset="0.269" stop-color="#C4BDBE"/>
<stop offset="0.299" stop-color="#C8C2C2"/>
<stop offset="0.334" stop-color="#D5D0D1"/>
<stop offset="0.372" stop-color="#EAE8E8"/>
<stop offset="0.4" stop-color="white"/>
<stop offset="0.44" stop-color="#FBFBFB"/>
<stop offset="0.472" stop-color="#F2F1F1"/>
<stop offset="0.501" stop-color="#E1E0E0"/>
<stop offset="0.529" stop-color="#CAC9C9"/>
<stop offset="0.555" stop-color="#ABAAAA"/>
<stop offset="0.581" stop-color="#878585"/>
<stop offset="0.6" stop-color="#666363"/>
<stop offset="0.619" stop-color="#878585"/>
<stop offset="0.645" stop-color="#ABAAAA"/>
<stop offset="0.671" stop-color="#CAC9C9"/>
<stop offset="0.699" stop-color="#E1E0E0"/>
<stop offset="0.728" stop-color="#F2F1F1"/>
<stop offset="0.76" stop-color="#FBFBFB"/>
<stop offset="0.8" stop-color="white"/>
<stop offset="0.837" stop-color="#EEECEC"/>
<stop offset="0.899" stop-color="#D7D2D2"/>
<stop offset="0.955" stop-color="#C9C3C3"/>
<stop offset="1" stop-color="#C5BEBE"/>
</linearGradient>
<linearGradient id="paint9_linear_289_1483" x1="397.496" y1="145.333" x2="436.899" y2="105.86" gradientUnits="userSpaceOnUse">
<stop stop-color="#821B24"/>
<stop offset="1" stop-color="#BF2E2D"/>
</linearGradient>
</defs>
</svg>
