<svg width="352" height="170" viewBox="0 0 352 170" fill="none" xmlns="http://www.w3.org/2000/svg">
<g filter="url(#filter0_d_204_761)">
<path d="M175 94.0023C175 127.141 148.138 154.002 115.001 154.002C81.8644 154.002 55 127.139 55 94.0023H73.0012C73.0012 117.198 91.8046 136.002 115.001 136.002C138.198 136.002 157.001 117.198 157.001 94.0023C157.001 70.8063 138.198 52.0017 115.001 52.0017C115.001 52.0017 114.804 52.0017 114.419 52.0131C111.792 52.0425 109.223 52.3191 106.74 52.8177C95.7412 54.6291 75.5086 60.4317 56.8918 79.0551L61.2064 62.9445L76.9966 4.00168H175L170.175 22.0023H90.8092L85.5226 41.7297C94.2292 36.8103 104.291 34.0017 115.001 34.0017C148.14 34.0017 175 60.8703 175 94.0011V94.0029V94.0023Z" fill="url(#paint0_linear_204_761)" stroke="url(#paint1_linear_204_761)" stroke-width="1.2" stroke-miterlimit="10"/>
<path d="M303.431 113.266C303.538 112.992 303.617 112.699 303.669 112.39C303.721 112.081 303.746 111.742 303.746 111.373V107.879C303.746 107.507 303.719 107.167 303.669 106.858C303.617 106.549 303.538 106.259 303.431 105.987H307.421L306.851 107.16C306.618 107.01 306.345 106.899 306.03 106.824C305.714 106.75 305.353 106.712 304.941 106.712H304.856V109.225H307.119L306.456 110.281C306.275 110.187 306.053 110.111 305.793 110.05C305.532 109.992 305.222 109.95 304.856 109.923V112.572C304.887 112.572 304.935 112.573 305 112.576C305.064 112.579 305.114 112.581 305.145 112.581C305.605 112.581 306.053 112.539 306.491 112.453C306.927 112.368 307.359 112.237 307.79 112.06L307.239 113.262H303.433L303.431 113.266Z" fill="white"/>
<path d="M308.118 111.466C308.284 111.78 308.489 112.017 308.732 112.177C308.974 112.339 309.249 112.419 309.56 112.419C309.864 112.419 310.112 112.333 310.304 112.16C310.495 111.987 310.59 111.761 310.59 111.486C310.59 111.035 310.202 110.589 309.429 110.147C309.329 110.088 309.254 110.044 309.203 110.017C308.679 109.705 308.32 109.41 308.125 109.129C307.931 108.847 307.833 108.501 307.833 108.09C307.833 107.479 308.046 106.965 308.474 106.545C308.9 106.125 309.425 105.916 310.05 105.916C310.248 105.916 310.454 105.937 310.67 105.979C310.887 106.022 311.109 106.086 311.339 106.17L311.291 107.437C311.137 107.245 310.957 107.1 310.751 107C310.543 106.9 310.317 106.849 310.068 106.849C309.746 106.849 309.485 106.942 309.287 107.13C309.088 107.316 308.99 107.559 308.99 107.86C308.99 108.103 309.062 108.318 309.206 108.498C309.35 108.679 309.669 108.916 310.166 109.207C310.2 109.225 310.251 109.257 310.322 109.297C310.782 109.564 311.114 109.796 311.319 109.996C311.481 110.154 311.606 110.338 311.687 110.554C311.771 110.768 311.812 111.006 311.812 111.265C311.812 111.912 311.588 112.416 311.142 112.782C310.695 113.149 310.073 113.332 309.277 113.332C309.085 113.332 308.89 113.314 308.693 113.28C308.497 113.245 308.292 113.191 308.081 113.119L308.118 111.466Z" fill="white"/>
<path d="M313.795 106.786C313.281 106.802 312.841 106.845 312.475 106.915C312.11 106.986 311.786 107.09 311.504 107.227L311.829 105.988H317.341L316.871 107.209C316.629 107.065 316.349 106.959 316.031 106.89C315.713 106.822 315.338 106.788 314.904 106.788V111.375C314.904 111.744 314.931 112.083 314.981 112.392C315.033 112.701 315.112 112.992 315.219 113.268H313.478C313.584 112.993 313.663 112.701 313.715 112.392C313.767 112.083 313.792 111.744 313.792 111.375V106.788L313.795 106.786Z" fill="white"/>
<path d="M315.923 112.534C315.923 112.325 316 112.14 316.155 111.981C316.311 111.823 316.496 111.744 316.713 111.744C316.932 111.744 317.118 111.821 317.273 111.976C317.426 112.132 317.504 112.317 317.504 112.534C317.504 112.76 317.426 112.949 317.273 113.103C317.118 113.256 316.932 113.333 316.713 113.333C316.496 113.333 316.31 113.256 316.155 113.101C316 112.946 315.923 112.758 315.923 112.536V112.534Z" fill="white"/>
<path d="M320.412 113.266C320.519 112.992 320.597 112.699 320.65 112.39C320.702 112.081 320.727 111.742 320.727 111.373V107.438H319.88L321.819 105.841V111.373C321.819 111.756 321.843 112.099 321.891 112.403C321.939 112.707 322.017 112.997 322.124 113.265H320.412V113.266Z" fill="white"/>
<path d="M323.322 109.401C323.049 109.201 322.847 108.981 322.718 108.744C322.589 108.507 322.523 108.237 322.523 107.937C322.523 107.365 322.727 106.884 323.136 106.498C323.544 106.112 324.05 105.918 324.656 105.918C325.256 105.918 325.747 106.102 326.132 106.47C326.517 106.838 326.708 107.305 326.708 107.871C326.708 108.2 326.639 108.496 326.499 108.757C326.361 109.018 326.161 109.231 325.897 109.393C326.244 109.555 326.505 109.785 326.673 110.075C326.842 110.366 326.927 110.727 326.927 111.161C326.927 111.787 326.706 112.307 326.264 112.717C325.822 113.13 325.262 113.335 324.585 113.335C323.927 113.335 323.39 113.14 322.974 112.752C322.557 112.36 322.349 111.859 322.349 111.241C322.349 110.843 322.432 110.492 322.593 110.185C322.756 109.878 323 109.617 323.322 109.405V109.401ZM324.654 112.321C325.011 112.321 325.303 112.214 325.529 111.998C325.755 111.782 325.868 111.502 325.868 111.157C325.868 110.815 325.752 110.541 325.521 110.33C325.288 110.121 324.985 110.016 324.608 110.016C324.258 110.016 323.971 110.122 323.752 110.334C323.532 110.545 323.423 110.814 323.423 111.139C323.423 111.471 323.54 111.751 323.775 111.979C324.009 112.209 324.303 112.323 324.654 112.323V112.321ZM324.672 109.09C324.987 109.09 325.239 108.99 325.432 108.785C325.625 108.581 325.722 108.316 325.722 107.988C325.722 107.637 325.628 107.361 325.442 107.16C325.256 106.959 325 106.859 324.672 106.859C324.333 106.859 324.056 106.962 323.84 107.172C323.624 107.379 323.516 107.646 323.516 107.968C323.516 108.29 323.627 108.558 323.848 108.771C324.069 108.983 324.344 109.089 324.674 109.089L324.672 109.09Z" fill="white"/>
<path d="M330.503 106.944H328.895C328.446 106.944 328.089 106.986 327.823 107.067C327.558 107.149 327.333 107.281 327.148 107.466V105.987H331.985L329.829 111.293C329.703 111.604 329.607 111.896 329.538 112.174C329.469 112.453 329.434 112.684 329.434 112.871C329.434 112.926 329.44 112.989 329.451 113.051C329.463 113.114 329.479 113.186 329.5 113.265H327.651C327.836 113.026 328.016 112.749 328.19 112.431C328.364 112.112 328.534 111.753 328.701 111.349L330.503 106.944Z" fill="white"/>
<path d="M335.262 109.044C335.732 109.153 336.102 109.382 336.373 109.729C336.643 110.075 336.777 110.499 336.777 110.995C336.777 111.703 336.543 112.27 336.075 112.698C335.606 113.125 334.979 113.338 334.194 113.338C333.815 113.338 333.459 113.288 333.126 113.188C332.794 113.088 332.488 112.936 332.21 112.732L332.915 111.426C333.084 111.782 333.29 112.047 333.534 112.217C333.779 112.387 334.068 112.474 334.407 112.474C334.791 112.474 335.103 112.339 335.346 112.072C335.588 111.803 335.711 111.457 335.711 111.031C335.711 110.644 335.57 110.337 335.29 110.111C335.01 109.885 334.628 109.773 334.148 109.773C334.076 109.773 334.005 109.776 333.932 109.782C333.86 109.789 333.788 109.799 333.716 109.81L335.4 106.828C334.337 106.835 333.582 106.877 333.136 106.954C332.691 107.032 332.4 107.162 332.267 107.344V105.983H337L335.264 109.041L335.262 109.044Z" fill="white"/>
<path d="M175 94.0023C175 127.141 148.138 154.002 115.001 154.002C81.8644 154.002 55 127.139 55 94.0023H73.0012C73.0012 117.198 91.8046 136.002 115.001 136.002C138.198 136.002 157.001 117.198 157.001 94.0023C157.001 70.8063 138.198 52.0017 115.001 52.0017C115.001 52.0017 114.804 52.0017 114.419 52.0131C111.792 52.0425 109.223 52.3191 106.74 52.8177C95.7412 54.6291 75.5086 60.4317 56.8918 79.0551L61.2064 62.9445L76.9966 4.00168H175L170.175 22.0023H90.8092L85.5226 41.7297C94.2292 36.8103 104.291 34.0017 115.001 34.0017C148.14 34.0017 175 60.8703 175 94.0011V94.0029V94.0023Z" fill="url(#paint2_linear_204_761)" stroke="url(#paint3_linear_204_761)" stroke-width="1.1982" stroke-miterlimit="10"/>
<path d="M270.995 56.5047H267.552C267.145 55.0707 266.661 53.5341 266.136 51.9513C265.939 51.3579 265.736 50.7579 265.528 50.1513C265.009 48.6387 264.466 47.0907 263.922 45.5439V45.5373L263.915 45.5307C263.755 45.0141 263.587 44.4987 263.414 43.9893C263.243 43.4727 263.061 42.9621 262.871 42.4545V42.4479C262.806 42.1965 262.74 41.9373 262.681 41.6859C262.484 40.9125 262.274 40.1379 262.023 39.3333C261.941 39.0705 261.855 38.7987 261.761 38.5287V38.5221C261.529 37.8435 261.254 37.1421 260.92 36.4161C260.855 36.2655 260.788 36.1215 260.717 35.9715C259.863 34.1781 258.663 32.1981 257.463 30.4341C257.224 30.0789 256.985 29.7327 256.747 29.4021C256.508 29.0649 256.275 28.7481 256.05 28.4421C255.824 28.1301 255.602 27.8421 255.387 27.5655C254.635 26.6055 253.997 25.8621 253.392 25.2015C253.214 25.0035 253.04 24.8175 252.867 24.6309C252.849 24.6063 252.824 24.5835 252.802 24.5589L257.979 30.0915L257.985 30.0981L258.421 30.5721C259.137 31.3515 259.836 32.1501 260.51 32.9721C261.705 34.6461 262.898 36.3201 264.104 38.5275C265.591 41.2515 267.101 44.7861 268.2 47.7321C269.109 50.1567 269.735 52.1775 270.332 54.2001C270.558 54.9555 270.779 55.7121 271 56.5035H270.995V56.5047Z" fill="url(#paint4_linear_204_761)" stroke="url(#paint5_linear_204_761)" stroke-width="1.2" stroke-linecap="round" stroke-linejoin="round"/>
<path d="M242.61 36.7887L242.602 36.7971C219.498 17.3871 182.534 22.4421 160.047 48.0849C140.874 69.9471 138.047 100.382 153.257 121.172C151.787 119.942 150.375 118.606 149.04 117.174C128.45 95.1549 131.875 58.3071 156.689 34.8783C181.503 11.4399 218.311 10.2939 238.9 32.3133C240.236 33.7455 241.473 35.2383 242.609 36.7899V36.7887H242.61Z" fill="url(#paint6_linear_204_761)" stroke="url(#paint7_linear_204_761)" stroke-width="1.2" stroke-miterlimit="10"/>
<path d="M238.421 31.8141C238.468 31.8615 238.517 31.9107 238.563 31.9647C238.582 31.9827 238.607 32.0073 238.624 32.0253C238.677 32.0859 238.731 32.1399 238.791 32.1987C238.803 32.2101 238.809 32.2233 238.821 32.2347C238.845 32.2593 238.868 32.2821 238.892 32.3133C238.975 32.3967 239.06 32.4867 239.136 32.5767C239.339 32.7927 239.53 33.0087 239.727 33.2241C239.863 33.3747 239.995 33.5361 240.133 33.6915C240.265 33.8469 240.402 34.0035 240.533 34.1541C240.54 34.1655 240.551 34.1721 240.558 34.1835C240.672 34.3161 240.78 34.4415 240.887 34.5741C240.994 34.7067 241.101 34.8441 241.209 34.9761C241.238 35.0115 241.268 35.0415 241.298 35.0775C241.304 35.0841 241.309 35.0955 241.322 35.1069C241.329 35.1183 241.34 35.1309 241.352 35.1423C241.412 35.2143 241.471 35.2929 241.531 35.3697C241.549 35.3877 241.567 35.4123 241.578 35.4351C241.631 35.5005 241.685 35.5677 241.739 35.6331C241.835 35.7525 241.925 35.8671 242.007 35.9883C242.032 36.0129 242.049 36.0423 242.067 36.0669C242.253 36.3069 242.432 36.5475 242.61 36.7857C246.944 42.7011 249.816 49.4157 251.256 56.5017H267.542C267.135 55.0677 266.652 53.5311 266.133 51.9483C265.936 51.3549 265.733 50.7549 265.525 50.1483C265.007 48.6357 264.462 47.0877 263.919 45.5409V45.5343C263.752 45.0177 263.584 44.5023 263.412 43.9863C263.28 43.6023 263.15 43.2177 263.012 42.8337C262.965 42.7011 262.922 42.5757 262.875 42.4497C262.81 42.1983 262.743 41.9397 262.678 41.6811C262.481 40.9077 262.272 40.1331 262.02 39.3285C261.938 39.0651 261.848 38.7939 261.759 38.5239V38.5173C261.526 37.8387 261.251 37.1373 260.918 36.4113C260.852 36.2607 260.786 36.1167 260.714 35.9667C259.86 34.1733 258.66 32.1933 257.46 30.4293C257.221 30.0741 256.982 29.7279 256.744 29.3973C256.505 29.0607 256.273 28.7433 256.047 28.4373C255.821 28.1253 255.599 27.8373 255.384 27.5607C254.633 26.6007 253.994 25.8567 253.389 25.1967C253.3 25.0953 253.211 24.9987 253.127 24.9087L252.799 24.5535C252.686 24.4341 252.578 24.3195 252.464 24.1983L252.428 24.1509C251.986 23.6949 251.545 23.2275 250.919 22.5975C249.789 21.4581 248.059 19.7775 245.844 17.9661C242.637 15.3321 238.405 12.4221 234.178 9.51147C233.235 9.00747 232.268 8.52747 231.294 8.07747C229.187 7.52487 227.072 6.97827 224.457 6.47547C221.24 5.86887 217.245 5.33607 214.022 4.98747C211.418 4.71087 209.312 4.56027 207.185 4.41687C205.007 4.27947 202.803 4.14687 199.992 4.07487C196.016 3.97827 190.821 3.99627 185.622 4.01427C184.493 4.28427 183.369 4.57827 182.249 4.89087C179.849 6.39027 177.455 7.88487 174.62 9.67947C174.291 9.88887 173.957 10.1001 173.622 10.3089C170.558 12.2463 167.126 14.4489 164.373 16.2303C161.997 17.7543 160.129 18.9783 158.253 20.1897C157.341 20.7831 156.438 21.3783 155.478 21.9963C154.456 22.6683 153.383 23.3697 152.177 24.1677C149.006 26.2557 144.995 28.9383 140.976 31.6131C140.194 32.5191 139.431 33.4491 138.696 34.3977C138.17 35.5977 137.651 36.7863 137.12 38.0157C136.289 39.9237 135.447 41.8971 134.535 44.0583C133.096 47.4897 131.507 51.3843 130.206 54.6363C130.02 55.1103 129.834 55.5663 129.662 56.0097C128.636 58.5963 127.86 60.6237 127.095 62.6277C126.348 64.5645 125.621 66.4863 124.772 68.8377C123.685 71.8803 122.402 75.6285 121.118 79.3857C121.053 80.5143 121.01 81.6489 120.999 82.7703C121.715 86.9889 122.426 91.1997 123.362 95.3715C124.234 99.2769 125.308 103.158 126.306 106.261C127.057 108.607 127.768 110.522 128.466 112.322C129.117 113.996 129.75 115.581 130.7 117.385C131.905 119.671 133.631 122.329 135.356 124.988C136.024 125.81 136.729 126.601 137.445 127.388L137.893 127.869V127.875L138.782 128.81C138.807 128.835 138.836 128.864 138.861 128.889C139.326 129.363 139.786 129.837 140.262 130.311C140.525 130.581 140.799 130.851 141.068 131.115C141.564 131.601 142.077 132.093 142.608 132.597C143.438 133.369 144.322 134.157 145.295 134.972C145.868 135.453 146.478 135.938 147.104 136.424C147.272 136.556 147.439 136.687 147.612 136.819C147.933 137.065 148.262 137.311 148.598 137.563C148.914 137.797 149.23 138.031 149.552 138.26C150.406 138.878 151.265 139.478 152.112 140.035C152.859 140.534 153.593 141.008 154.298 141.433C154.686 141.673 155.067 141.901 155.438 142.111C157.725 143.419 159.57 144.199 161.39 144.918C163.103 145.597 164.794 146.227 166.936 146.586C169.414 147 172.496 147.061 175.653 147.067H177.008C177.134 147.085 177.258 147.096 177.384 147.109C177.509 147.127 177.635 147.134 177.755 147.145C178.614 147.242 179.475 147.314 180.34 147.368C180.77 147.458 181.194 147.541 181.624 147.626C182.483 147.799 183.344 147.968 184.215 148.125C186.4 148.516 188.652 148.833 191.105 148.959C193.237 149.073 195.524 149.037 197.727 148.887C198.825 148.815 199.901 148.713 200.934 148.588C201.141 148.558 201.351 148.533 201.555 148.509C201.962 148.455 202.355 148.395 202.743 148.335C203.132 148.275 203.507 148.216 203.871 148.144C204.093 148.102 204.314 148.061 204.529 148.012C206.021 147.706 207.311 147.34 208.523 146.944C208.72 146.879 208.917 146.812 209.109 146.746C209.627 146.573 210.131 146.387 210.636 146.2C212.003 145.697 213.357 145.169 214.779 144.436C215.168 144.232 215.562 144.016 215.962 143.782H215.969C216.237 143.62 216.506 143.458 216.774 143.284C216.875 143.218 216.983 143.158 217.085 143.092C217.438 142.865 217.8 142.612 218.165 142.349C218.733 141.946 219.312 141.508 219.903 141.04C220.452 140.62 221.007 140.171 221.562 139.697C222.38 139.018 223.216 138.299 224.051 137.573C224.069 137.562 224.093 137.544 224.111 137.519C224.684 137.016 225.258 136.506 225.837 135.996C225.969 135.887 226.094 135.768 226.226 135.654C226.352 135.54 226.476 135.426 226.609 135.312C226.859 135.157 227.116 135 227.367 134.838C227.617 134.683 227.874 134.519 228.125 134.357C228.632 134.038 229.122 133.71 229.623 133.373C230.005 133.222 230.387 133.067 230.769 132.91C233.456 131.83 236.154 130.684 238.954 128.962C242.494 126.784 246.19 123.694 248.757 120.993C249.976 119.71 250.942 118.51 251.796 117.333C252.311 116.632 252.788 115.935 253.253 115.234C253.259 115.234 253.259 115.227 253.259 115.227C254.507 113.356 255.712 111.441 256.799 108.825C257.277 107.691 257.73 106.419 258.166 105.057C258.519 103.971 258.864 102.825 259.199 101.643C259.21 101.596 259.223 101.547 259.241 101.499H242.118C239.134 106.167 235.504 110.583 231.246 114.61C211.861 132.921 185.156 137.62 164.583 128.303C160.529 126.473 156.732 124.102 153.264 121.17C153.257 121.164 153.252 121.158 153.246 121.158C153.06 121.003 152.874 120.846 152.695 120.684C152.553 120.57 152.415 120.45 152.277 120.33C152.152 120.215 152.034 120.102 151.906 119.988C151.888 119.97 151.864 119.952 151.847 119.934C151.721 119.826 151.596 119.711 151.476 119.597C151.35 119.482 151.225 119.37 151.1 119.248C150.753 118.918 150.402 118.584 150.055 118.228C149.995 118.168 149.93 118.109 149.87 118.042V118.03C149.577 117.75 149.308 117.46 149.033 117.172C148.465 116.566 147.918 115.948 147.396 115.319C147.122 115.006 146.865 114.689 146.614 114.37C146.352 114.052 146.107 113.734 145.862 113.41C145.612 113.087 145.372 112.763 145.14 112.433C144.901 112.114 144.679 111.797 144.46 111.478C144.227 111.137 143.995 110.788 143.767 110.44C143.756 110.433 143.767 110.433 143.767 110.433C143.546 110.097 143.331 109.755 143.123 109.413C142.908 109.071 142.698 108.73 142.502 108.382C142.095 107.685 141.708 106.984 141.343 106.276C141.157 105.921 140.979 105.561 140.806 105.202C140.627 104.847 140.46 104.487 140.292 104.128V104.121C140.124 103.761 139.957 103.402 139.809 103.029C139.569 102.483 139.343 101.925 139.134 101.373C139.062 101.187 138.991 101.007 138.919 100.821V100.809C138.639 100.065 138.375 99.3146 138.137 98.5592C138.09 98.4266 138.053 98.2959 138.011 98.1638C137.968 98.0378 137.933 97.9053 137.892 97.7732C137.832 97.5866 137.778 97.4007 137.724 97.2153C137.628 96.9033 137.539 96.5907 137.456 96.2738V96.2673C137.241 95.4945 137.056 94.7187 136.883 93.9506V93.9392C136.812 93.6093 136.74 93.2847 136.674 92.9547C136.663 92.9073 136.656 92.8587 136.645 92.8107C136.634 92.7639 136.627 92.7147 136.616 92.6673C136.563 92.3979 136.515 92.1327 136.466 91.8633C136.43 91.6713 136.395 91.4786 136.365 91.292C136.257 90.6627 136.162 90.0321 136.073 89.3955C136.025 89.0229 135.976 88.6515 135.936 88.2794C135.924 88.1954 135.918 88.1055 135.906 88.0209V88.0095C135.864 87.6141 135.824 87.2115 135.792 86.8095C135.762 86.4909 135.739 86.1735 135.721 85.8501C135.721 85.8135 135.714 85.7715 135.714 85.7355C135.703 85.6635 135.696 85.5915 135.696 85.5129C135.672 85.2183 135.66 84.9243 135.65 84.6321C135.638 84.4881 135.632 84.3375 135.632 84.1875C135.62 83.9415 135.607 83.6883 135.602 83.4369V83.3283C135.591 82.8657 135.591 82.3983 135.591 81.9375C135.591 81.4269 135.597 80.9109 135.609 80.4027C135.62 80.0541 135.627 79.7013 135.651 79.3527C135.651 79.2693 135.657 79.1907 135.663 79.1079C135.669 78.9393 135.68 78.7767 135.687 78.6087C135.693 78.5253 135.698 78.4407 135.705 78.3639C135.705 78.3207 135.705 78.2805 135.711 78.2373C135.718 78.1953 135.718 78.1545 135.723 78.1119V78.0285C135.723 77.9139 135.734 77.7944 135.747 77.6805C135.777 77.2893 135.808 76.9005 135.849 76.5231C135.849 76.4445 135.86 76.3725 135.867 76.3005C135.885 76.1091 135.903 75.9099 135.92 75.7119C135.945 75.5259 135.967 75.3453 135.992 75.1593C135.992 75.1053 135.998 75.0447 136.01 74.9913V74.9613C136.01 74.9499 136.01 74.9433 136.016 74.9319C136.022 74.8893 136.028 74.8425 136.041 74.7993C136.07 74.4939 136.112 74.1879 136.16 73.8759C136.178 73.7253 136.196 73.5699 136.22 73.4199C136.22 73.4019 136.22 73.3833 136.226 73.3659C136.244 73.2219 136.269 73.0779 136.292 72.9339C136.316 72.7785 136.338 72.6105 136.369 72.4533C136.429 72.0873 136.494 71.7093 136.56 71.3367C136.589 71.1633 136.62 70.9887 136.656 70.8207C136.805 69.9981 136.984 69.1887 137.175 68.3727C137.192 68.2587 137.221 68.1501 137.252 68.0361C137.295 67.8627 137.336 67.6941 137.378 67.5195C137.421 67.3509 137.461 67.1781 137.51 67.0089L137.653 66.4341C137.706 66.2421 137.76 66.0561 137.814 65.8695C137.832 65.7981 137.857 65.7189 137.874 65.6421C137.892 65.5707 137.916 65.4987 137.939 65.4207C137.981 65.2701 138.021 65.1213 138.071 64.9707C138.131 64.7613 138.19 64.5501 138.257 64.3347C138.323 64.1187 138.389 63.9081 138.46 63.6987C138.496 63.5661 138.538 63.4401 138.574 63.3081C138.617 63.1755 138.657 63.0501 138.706 62.9175C138.766 62.7261 138.831 62.5401 138.897 62.3469C138.926 62.2503 138.957 62.1555 138.992 62.0655C139.028 61.9689 139.064 61.8741 139.093 61.7775C139.1 61.7481 139.111 61.7169 139.118 61.6941C139.125 61.6761 139.13 61.6575 139.136 61.6401C139.219 61.4175 139.297 61.2015 139.375 60.9927C139.471 60.7161 139.583 60.4353 139.692 60.1587C139.739 60.0327 139.781 59.9007 139.835 59.7813V59.7699C139.967 59.4279 140.103 59.0913 140.241 58.7427C140.248 58.7247 140.253 58.7061 140.259 58.6953C140.271 58.6773 140.277 58.6587 140.289 58.6413C140.39 58.3899 140.498 58.1313 140.606 57.8793C140.774 57.4839 140.941 57.0813 141.12 56.6859C141.281 56.3259 141.442 55.9713 141.609 55.6185C141.842 55.1145 142.082 54.6231 142.332 54.1239C142.536 53.7153 142.743 53.3079 142.958 52.9059C143.048 52.7379 143.138 52.5687 143.227 52.4019C143.252 52.3593 143.274 52.3119 143.298 52.2693C143.31 52.2447 143.323 52.2219 143.334 52.1973C143.514 51.8487 143.705 51.5139 143.903 51.1701C144.446 50.1921 145.025 49.2261 145.634 48.2715C145.856 47.9163 146.076 47.5575 146.313 47.2155C146.32 47.2089 146.325 47.2089 146.325 47.2041C146.331 47.1927 146.343 47.1795 146.349 47.1681C146.361 47.1435 146.379 47.1207 146.396 47.0961C146.403 47.0847 146.408 47.0781 146.414 47.0667C146.432 47.0373 146.457 47.0061 146.474 46.9767C146.521 46.8981 146.571 46.8261 146.618 46.7541C146.814 46.4595 147.017 46.1655 147.221 45.8775C147.322 45.7269 147.425 45.5829 147.525 45.4395C147.579 45.3609 147.633 45.2889 147.686 45.2121C147.954 44.8215 148.241 44.4321 148.533 44.0415C148.54 44.0169 148.558 44.0055 148.58 43.9809V43.9743C148.878 43.5789 149.177 43.1763 149.488 42.7809C149.517 42.7443 149.541 42.7155 149.577 42.6735V42.6669C149.931 42.2109 150.288 41.7609 150.665 41.3163C151.398 40.4169 152.156 39.5337 152.957 38.6709C153.744 37.8009 154.563 36.9429 155.409 36.1089C155.828 35.6817 156.257 35.2689 156.687 34.8615C157.094 34.4775 157.499 34.1061 157.91 33.7401C158.232 33.4455 158.561 33.1647 158.89 32.8887C159.08 32.7159 159.272 32.5467 159.468 32.3901C160.125 31.8141 160.788 31.2687 161.468 30.7449C161.54 30.6909 161.611 30.6303 161.684 30.5769C161.772 30.5049 161.868 30.4329 161.958 30.3609C162.293 30.1029 162.626 29.8443 162.967 29.5923C163.182 29.4303 163.403 29.2689 163.625 29.1117C163.839 28.9497 164.06 28.7997 164.282 28.6443C164.329 28.6089 164.383 28.5723 164.431 28.5369C164.67 28.3575 164.915 28.1883 165.16 28.0329C165.213 27.9969 165.261 27.9609 165.315 27.9315C165.344 27.9069 165.368 27.8889 165.398 27.8709C165.583 27.7383 165.769 27.6129 165.953 27.4983C166.239 27.3003 166.525 27.1143 166.812 26.9271C166.883 26.8797 166.954 26.8371 167.026 26.7897C167.091 26.7471 167.163 26.6997 167.235 26.6571C167.384 26.5605 167.528 26.4705 167.677 26.3805C167.766 26.3265 167.85 26.2659 167.939 26.2185C168.029 26.1645 168.112 26.1111 168.201 26.0565C168.207 26.0499 168.219 26.0385 168.23 26.0319L168.242 26.0205C168.242 26.0205 168.248 26.0139 168.253 26.0139C168.282 25.9893 168.313 25.9713 168.35 25.9533C168.767 25.7019 169.191 25.4433 169.627 25.2027C169.967 25.0047 170.313 24.8073 170.66 24.6141C170.838 24.5127 171.024 24.4095 171.21 24.3147C171.252 24.2901 171.293 24.2673 171.341 24.2427C172.142 23.8041 172.954 23.3913 173.772 22.9947C174.704 22.5387 175.635 22.1067 176.579 21.7047H176.585C177.057 21.5001 177.528 21.3027 178 21.1113C178.472 20.9133 178.95 20.7339 179.427 20.5539C179.906 20.3745 180.381 20.1939 180.86 20.0373C181.338 19.8579 181.815 19.7007 182.298 19.5519C182.777 19.3965 183.254 19.2459 183.732 19.1025H183.743C184.704 18.8079 185.666 18.5451 186.639 18.3045H186.645C187.607 18.0645 188.579 17.8485 189.547 17.6619H189.554C190.037 17.5653 190.527 17.4759 191.01 17.3919C191.983 17.2185 192.951 17.0733 193.923 16.9539C193.971 16.9473 194.02 16.9425 194.073 16.9425C194.516 16.8885 194.949 16.8411 195.386 16.7985C195.486 16.7871 195.594 16.7805 195.696 16.7691C196.079 16.7331 196.461 16.6971 196.844 16.6725C196.908 16.6659 196.976 16.6611 197.04 16.6545C197.394 16.6251 197.745 16.6071 198.085 16.5939C198.163 16.5873 198.239 16.5825 198.317 16.5825H198.354C198.39 16.5825 198.419 16.5759 198.454 16.5759C198.771 16.5579 199.094 16.5465 199.404 16.5333C199.989 16.5153 200.569 16.5039 201.148 16.5039C202.02 16.5039 202.892 16.5285 203.758 16.5645C203.793 16.5645 203.822 16.5645 203.858 16.5711C204.258 16.5891 204.652 16.6065 205.041 16.6365C205.088 16.6431 205.137 16.6431 205.184 16.6479C205.56 16.6725 205.942 16.7085 206.318 16.7379C206.378 16.7445 206.444 16.7493 206.504 16.7559C206.868 16.7853 207.226 16.8279 207.597 16.8633C207.926 16.9059 208.254 16.9419 208.583 16.9827C208.762 17.0073 208.941 17.0301 209.12 17.0613C209.455 17.1087 209.782 17.1579 210.117 17.2119C210.343 17.2479 210.564 17.2839 210.792 17.3265C210.983 17.3631 211.181 17.3919 211.371 17.4279C211.485 17.4459 211.593 17.4705 211.707 17.4933C212.011 17.5473 212.315 17.6079 212.614 17.6727C212.979 17.7513 213.343 17.8233 213.701 17.9127C213.779 17.9307 213.855 17.9421 213.933 17.9667C214.048 17.9913 214.16 18.0207 214.274 18.0501C214.31 18.0567 214.352 18.0681 214.388 18.0741C214.578 18.1215 214.77 18.1707 214.96 18.2247C214.978 18.2247 214.99 18.2313 215.007 18.2361L215.079 18.2541C215.283 18.3081 215.485 18.3555 215.687 18.4161C215.891 18.4701 216.094 18.5235 216.296 18.5841C216.702 18.6915 217.101 18.8115 217.507 18.9441C217.907 19.0701 218.301 19.1955 218.708 19.3347C219.102 19.4673 219.495 19.6113 219.896 19.7553C220.194 19.8627 220.493 19.9713 220.786 20.0919C221.007 20.1705 221.228 20.2599 221.444 20.3499C221.622 20.4219 221.801 20.4939 221.981 20.5725C222.063 20.6019 222.147 20.6379 222.231 20.6739C222.237 20.6739 222.242 20.6853 222.255 20.6853C222.32 20.7147 222.381 20.7393 222.446 20.7687C222.69 20.8701 222.929 20.9781 223.175 21.0873C223.246 21.1167 223.317 21.1527 223.389 21.1839C223.766 21.3573 224.147 21.5325 224.523 21.7185C224.53 21.7185 224.535 21.7251 224.535 21.7251C224.792 21.8445 225.036 21.9705 225.287 22.0977C225.323 22.1157 225.365 22.1331 225.401 22.1517C225.483 22.1991 225.569 22.2417 225.657 22.2843C225.837 22.3809 226.016 22.4709 226.194 22.5657C226.273 22.6017 226.344 22.6443 226.421 22.6851C226.521 22.7391 226.624 22.7925 226.718 22.8471C226.772 22.8831 226.826 22.9125 226.886 22.9437C227.197 23.1171 227.519 23.2989 227.836 23.4783C227.872 23.4963 227.914 23.5257 227.955 23.5437C228.109 23.6403 228.272 23.7351 228.427 23.8317C228.48 23.8611 228.527 23.8971 228.581 23.9283C228.707 24.0003 228.831 24.0723 228.952 24.1509C229.023 24.1935 229.088 24.2409 229.161 24.2835C229.454 24.4569 229.74 24.6435 230.026 24.8361C230.205 24.9507 230.379 25.0701 230.551 25.1847C230.73 25.3041 230.904 25.4247 231.077 25.5513C231.113 25.5759 231.149 25.5987 231.178 25.6167C231.207 25.6413 231.243 25.6593 231.273 25.6821C231.338 25.7295 231.405 25.7787 231.471 25.8195C231.482 25.8309 231.5 25.8375 231.513 25.8489C231.525 25.8555 231.538 25.8669 231.549 25.8735C231.788 26.0415 232.021 26.2101 232.254 26.3901C232.283 26.4147 232.314 26.4327 232.343 26.4555C232.54 26.5995 232.732 26.7435 232.928 26.8935C232.994 26.9475 233.065 27.0009 233.137 27.0555C233.363 27.2235 233.585 27.3975 233.805 27.5835C233.823 27.5949 233.841 27.6129 233.859 27.6261C233.906 27.6627 233.954 27.6981 234.002 27.7407C234.048 27.7767 234.091 27.8127 234.138 27.8487C234.466 28.1187 234.795 28.4013 235.124 28.6761C235.459 28.9641 235.787 29.2521 236.115 29.5527C236.394 29.8041 236.67 30.0627 236.945 30.3261C236.981 30.3555 237.009 30.3915 237.046 30.4221C237.051 30.4257 237.054 30.4305 237.057 30.4335C237.062 30.4365 237.065 30.4419 237.069 30.4449L237.087 30.4629C237.223 30.5889 237.373 30.7395 237.504 30.8715C237.659 31.0221 237.809 31.1775 237.965 31.3275V31.3341C238.126 31.4895 238.276 31.6461 238.425 31.8081L238.422 31.8111L238.421 31.8141Z" fill="url(#paint8_linear_204_761)" stroke="url(#paint9_linear_204_761)" stroke-width="1.2" stroke-miterlimit="10"/>
<path d="M263.413 43.9875C263.281 43.6035 263.151 43.2189 263.013 42.8349C262.966 42.7023 262.923 42.5763 262.876 42.4509H262.869V42.4443C252.219 32.4597 242.636 21.4569 234.177 9.51687C233.234 9.01287 232.266 8.53287 231.292 8.08287C215.8 8.10747 200.534 6.75027 185.62 4.02147C184.491 4.29147 183.368 4.58547 182.248 4.89807C179.298 7.15467 176.32 9.36147 173.299 11.5029C168.14 15.1749 162.88 18.6723 157.531 22.0029C152.104 25.3875 146.588 28.5903 140.976 31.6209C140.194 32.5269 139.431 33.4569 138.696 34.4055C138.32 35.6661 137.931 36.9249 137.537 38.1855C135.753 43.8981 133.776 49.5729 131.62 55.2021C128.498 63.3735 124.998 71.4441 121.119 79.3947C121.054 80.5221 121.011 81.6567 121 82.7781C127.097 96.2487 131.895 110.355 135.359 124.994C136.027 125.817 136.732 126.607 137.448 127.394C138.217 127.688 138.982 127.987 139.746 128.288C145.938 130.724 151.986 133.412 157.891 136.352H157.898C164.465 139.621 170.829 143.197 177.014 147.074C177.14 147.092 177.264 147.103 177.39 147.116C177.515 147.134 177.641 147.141 177.761 147.153C178.62 147.249 179.481 147.321 180.346 147.375C195.552 142.029 211.016 138.003 226.61 135.315C226.861 135.16 227.118 135.003 227.368 134.841C227.619 134.686 227.876 134.522 228.126 134.36C228.633 134.041 229.124 133.713 229.625 133.376C229.625 133.369 229.631 133.369 229.631 133.365C237.393 122.222 245.877 111.579 255.047 101.505H242.121C239.136 106.172 235.506 110.587 231.249 114.615C211.863 132.926 185.159 137.625 164.586 128.308C160.532 126.479 156.734 124.108 153.266 121.175C153.26 121.168 153.255 121.164 153.248 121.164C153.063 121.008 152.877 120.851 152.699 120.689C152.555 120.575 152.418 120.456 152.28 120.335C152.154 120.22 152.036 120.108 151.909 119.993C151.891 119.975 151.866 119.957 151.849 119.938C151.724 119.831 151.599 119.716 151.478 119.602C151.352 119.487 151.228 119.375 151.102 119.254C150.756 118.924 150.405 118.588 150.058 118.234C149.998 118.173 149.933 118.114 149.872 118.047V118.036C149.579 117.755 149.311 117.465 149.036 117.178C148.468 116.571 147.92 115.953 147.399 115.324C147.124 115.012 146.867 114.694 146.617 114.375C146.355 114.057 146.109 113.74 145.865 113.416C145.614 113.092 145.375 112.768 145.142 112.438C144.903 112.119 144.682 111.802 144.462 111.483C144.23 111.142 143.997 110.793 143.77 110.445C143.759 110.439 143.77 110.439 143.77 110.439C143.549 110.102 143.334 109.76 143.125 109.419C142.91 109.077 142.701 108.735 142.504 108.387C142.097 107.69 141.71 106.989 141.345 106.281C141.16 105.927 140.981 105.567 140.808 105.207C140.63 104.852 140.462 104.493 140.295 104.133V104.126C140.127 103.766 139.96 103.407 139.811 103.034C139.572 102.489 139.346 101.931 139.137 101.378C139.065 101.192 138.993 101.011 138.921 100.825V100.814C138.642 100.07 138.378 99.32 138.139 98.5646C138.092 98.432 138.056 98.3007 138.014 98.1687C137.971 98.0427 137.936 97.9101 137.895 97.7781C137.835 97.5915 137.78 97.4055 137.727 97.2207C137.631 96.9081 137.541 96.5961 137.459 96.2786V96.2726C137.244 95.4993 137.058 94.7241 136.886 93.9555V93.9441C136.815 93.6141 136.743 93.2907 136.677 92.9601C136.666 92.9127 136.659 92.8635 136.648 92.8161C136.637 92.7687 136.63 92.7194 136.619 92.672C136.565 92.4026 136.517 92.1374 136.469 91.868C136.433 91.6766 136.397 91.484 136.368 91.2974C136.26 90.6681 136.164 90.0368 136.075 89.4009C136.028 89.0277 135.979 88.6568 135.938 88.2842C135.927 88.2002 135.921 88.1108 135.909 88.0256V88.0142C135.867 87.6188 135.827 87.2168 135.795 86.8142C135.765 86.4956 135.741 86.1788 135.723 85.8548C135.723 85.8189 135.717 85.7769 135.717 85.7403C135.705 85.6683 135.699 85.5963 135.699 85.5177C135.674 85.2237 135.663 84.9291 135.652 84.6369C135.641 84.4928 135.634 84.3429 135.634 84.1923C135.623 83.9469 135.609 83.6936 135.605 83.4416V83.3337C135.593 82.8711 135.593 82.4037 135.593 81.9423C135.593 81.4322 135.6 80.9163 135.611 80.4075C135.623 80.0589 135.629 79.7061 135.654 79.3575C135.654 79.2747 135.66 79.1961 135.665 79.1127C135.672 78.9441 135.683 78.7821 135.69 78.6135C135.696 78.5307 135.701 78.4455 135.708 78.3687C135.708 78.3261 135.708 78.2853 135.714 78.2427C135.721 78.2001 135.721 78.1593 135.726 78.1173V78.0339C135.726 77.9193 135.737 77.7999 135.75 77.6853C135.78 77.2947 135.81 76.9053 135.851 76.5279C135.851 76.4493 135.863 76.3773 135.869 76.3053C135.887 76.1139 135.905 75.9147 135.923 75.7167C135.947 75.5307 135.969 75.3507 135.994 75.1641C135.994 75.1101 136.001 75.0495 136.012 74.9961V74.9661C136.012 74.9547 136.012 74.9487 136.019 74.9373C136.025 74.8941 136.03 74.8473 136.044 74.8047C136.073 74.4987 136.115 74.1933 136.163 73.8807C136.181 73.7307 136.199 73.5753 136.222 73.4247C136.222 73.4067 136.222 73.3887 136.229 73.3707C136.247 73.2267 136.271 73.0827 136.294 72.9393C136.319 72.7833 136.341 72.6153 136.372 72.4587C136.432 72.0921 136.497 71.7147 136.563 71.3415C136.592 71.1687 136.622 70.9935 136.658 70.8255C136.808 70.0029 136.986 69.1935 137.177 68.3775C137.195 68.2635 137.224 68.1555 137.255 68.0409C137.297 67.8681 137.339 67.6995 137.381 67.5243C137.423 67.3563 137.463 67.1829 137.513 67.0149L137.656 66.4389C137.709 66.2475 137.763 66.0615 137.816 65.8749C137.835 65.8029 137.859 65.7249 137.877 65.6481C137.895 65.5761 137.919 65.5041 137.942 65.4255C137.984 65.2749 138.024 65.1261 138.074 64.9761C138.134 64.7667 138.192 64.5555 138.259 64.3395C138.326 64.1235 138.392 63.9129 138.462 63.7035C138.498 63.5709 138.54 63.4455 138.576 63.3129C138.62 63.1803 138.66 63.0549 138.709 62.9223C138.768 62.7309 138.834 62.5449 138.899 62.3517C138.929 62.2551 138.959 62.1603 138.995 62.0703C139.031 61.9737 139.067 61.8789 139.096 61.7823C139.103 61.7529 139.115 61.7217 139.121 61.6989C139.128 61.6809 139.133 61.6623 139.139 61.6449C139.221 61.4223 139.299 61.2063 139.378 60.9969C139.474 60.7203 139.586 60.4395 139.695 60.1629C139.742 60.0369 139.784 59.9049 139.838 59.7855V59.7741C139.97 59.4321 140.106 59.0955 140.244 58.7469C140.25 58.7289 140.256 58.7103 140.262 58.6995C140.273 58.6815 140.28 58.6635 140.291 58.6455C140.392 58.3941 140.5 58.1355 140.608 57.8835C140.776 57.4881 140.943 57.0855 141.122 56.6901C141.284 56.3301 141.444 55.9761 141.612 55.6227C141.845 55.1187 142.085 54.6273 142.335 54.1281C142.538 53.7195 142.746 53.3121 142.961 52.9101C143.051 52.7421 143.14 52.5735 143.23 52.4061C143.255 52.3635 143.277 52.3161 143.301 52.2735C143.313 52.2489 143.325 52.2261 143.337 52.2015C143.516 51.8529 143.708 51.5181 143.905 51.1743C144.449 50.1963 145.028 49.2303 145.637 48.2757C145.858 47.9205 146.079 47.5617 146.316 47.2197C146.323 47.2131 146.328 47.2131 146.328 47.2083C146.334 47.1969 146.346 47.1837 146.352 47.1723C146.364 47.1483 146.382 47.1249 146.399 47.1003C146.406 47.0889 146.411 47.0823 146.417 47.0709C146.435 47.0415 146.46 47.0103 146.477 46.9809C146.524 46.9023 146.573 46.8303 146.62 46.7583C146.817 46.4637 147.02 46.1697 147.224 45.8817C147.324 45.7311 147.427 45.5871 147.528 45.4431C147.582 45.3645 147.636 45.2925 147.689 45.2157C147.957 44.8251 148.244 44.4357 148.536 44.0451C148.542 44.0205 148.56 44.0091 148.583 43.9845V43.9779C148.881 43.5825 149.18 43.1799 149.491 42.7845C149.52 42.7485 149.544 42.7191 149.58 42.6771V42.6705C149.934 42.2145 150.291 41.7645 150.668 41.3199C151.401 40.4205 152.159 39.5379 152.96 38.6745C153.747 37.8045 154.565 36.9465 155.412 36.1125C155.831 35.6853 156.26 35.2725 156.69 34.8651C157.097 34.4811 157.502 34.1097 157.913 33.7437C158.235 33.4491 158.564 33.1683 158.892 32.8923C159.083 32.7195 159.275 32.5503 159.471 32.3931C160.128 31.8171 160.79 31.2717 161.471 30.7485C161.542 30.6945 161.613 30.6339 161.686 30.5805C161.775 30.5085 161.871 30.4365 161.961 30.3645C162.296 30.1065 162.629 29.8479 162.97 29.5959C163.184 29.4339 163.406 29.2725 163.627 29.1153C163.842 28.9533 164.063 28.8033 164.285 28.6479C164.331 28.6119 164.385 28.5759 164.434 28.5405C164.673 28.3611 164.918 28.1919 165.163 28.0365C165.216 28.0005 165.264 27.9645 165.318 27.9351C165.347 27.9105 165.371 27.8925 165.4 27.8745C165.586 27.7419 165.771 27.6159 165.955 27.5019C166.241 27.3039 166.528 27.1179 166.814 26.9307C166.886 26.8833 166.957 26.8407 167.028 26.7933C167.094 26.7507 167.165 26.7033 167.237 26.6607C167.387 26.5641 167.53 26.4741 167.68 26.3841C167.769 26.3301 167.852 26.2695 167.942 26.2221C168.031 26.1681 168.114 26.1147 168.204 26.0601C168.21 26.0535 168.222 26.0421 168.233 26.0355L168.245 26.0241C168.245 26.0241 168.251 26.0175 168.256 26.0175C168.285 25.9929 168.316 25.9749 168.353 25.9569C168.77 25.7055 169.194 25.4463 169.629 25.2063C169.97 25.0083 170.316 24.8109 170.663 24.6177C170.841 24.5163 171.027 24.4131 171.212 24.3183C171.255 24.2937 171.295 24.2709 171.344 24.2463C172.145 23.8083 172.957 23.3949 173.775 22.9989C174.707 22.5429 175.638 22.1109 176.581 21.7089H176.588C177.06 21.5043 177.531 21.3069 178.002 21.1155C178.475 20.9175 178.953 20.7381 179.43 20.5581C179.908 20.3787 180.384 20.1981 180.863 20.0415C181.341 19.8621 181.818 19.7049 182.301 19.5561C182.78 19.4007 183.256 19.2501 183.735 19.1067H183.746C184.707 18.8121 185.669 18.5493 186.641 18.3087H186.648C187.61 18.0687 188.582 17.8527 189.55 17.6661H189.557C190.04 17.5695 190.529 17.4801 191.013 17.3961C191.985 17.2233 192.954 17.0775 193.926 16.9581C193.973 16.9515 194.022 16.9467 194.076 16.9467C194.519 16.8927 194.952 16.8453 195.389 16.8027C195.489 16.7913 195.597 16.7847 195.699 16.7733C196.082 16.7373 196.464 16.7013 196.847 16.6767C196.911 16.6701 196.978 16.6653 197.043 16.6587C197.396 16.6293 197.748 16.6113 198.088 16.5981C198.165 16.5915 198.242 16.5867 198.32 16.5867H198.356C198.392 16.5867 198.421 16.5801 198.457 16.5801C198.774 16.5621 199.096 16.5507 199.407 16.5375C199.992 16.5195 200.571 16.5081 201.151 16.5081C202.022 16.5081 202.894 16.5327 203.76 16.5687C203.796 16.5687 203.825 16.5687 203.861 16.5753C204.261 16.5933 204.655 16.6107 205.044 16.6407C205.091 16.6473 205.14 16.6473 205.187 16.6521C205.563 16.6767 205.944 16.7127 206.321 16.7421C206.381 16.7487 206.446 16.7535 206.506 16.7601C206.871 16.7895 207.228 16.8321 207.6 16.8675C207.928 16.9101 208.257 16.9461 208.586 16.9869C208.764 17.0115 208.944 17.0343 209.123 17.0655C209.457 17.1129 209.785 17.1621 210.12 17.2161C210.345 17.2521 210.567 17.2881 210.795 17.3307C210.985 17.3667 211.184 17.3961 211.374 17.4321C211.488 17.4501 211.595 17.4747 211.709 17.4975C212.014 17.5515 212.318 17.6121 212.617 17.6769C212.982 17.7555 213.346 17.8275 213.704 17.9169C213.782 17.9349 213.858 17.9463 213.936 17.9709C214.05 17.9955 214.162 18.0249 214.277 18.0543C214.313 18.0609 214.354 18.0723 214.39 18.0789C214.581 18.1263 214.773 18.1755 214.963 18.2295C214.981 18.2295 214.993 18.2361 215.01 18.2409L215.082 18.2589C215.285 18.3129 215.488 18.3603 215.69 18.4209C215.894 18.4749 216.096 18.5283 216.299 18.5889C216.705 18.6969 217.104 18.8163 217.51 18.9489C217.91 19.0749 218.304 19.2003 218.71 19.3395C219.105 19.4721 219.498 19.6161 219.899 19.7601C220.196 19.8675 220.495 19.9761 220.788 20.0973C221.009 20.1759 221.231 20.2653 221.445 20.3553C221.624 20.4273 221.804 20.4993 221.982 20.5779C222.065 20.6073 222.15 20.6433 222.233 20.6793C222.239 20.6793 222.245 20.6907 222.257 20.6907C222.322 20.7201 222.383 20.7447 222.448 20.7741C222.692 20.8755 222.931 20.9835 223.176 21.0927C223.248 21.1221 223.32 21.1581 223.392 21.1893C223.768 21.3627 224.15 21.5379 224.526 21.7239C224.532 21.7239 224.537 21.7305 224.537 21.7305C224.794 21.8499 225.038 21.9759 225.289 22.1031C225.325 22.1211 225.367 22.1385 225.403 22.1571C225.485 22.2045 225.57 22.2471 225.66 22.2897C225.839 22.3863 226.018 22.4763 226.197 22.5711C226.275 22.6071 226.346 22.6497 226.422 22.6905C226.523 22.7445 226.626 22.7979 226.72 22.8525C226.773 22.8891 226.828 22.9179 226.888 22.9491C227.199 23.1225 227.52 23.3043 227.838 23.4837C227.874 23.5017 227.916 23.5311 227.957 23.5491C228.111 23.6457 228.273 23.7405 228.429 23.8371C228.482 23.8665 228.53 23.9025 228.584 23.9337C228.708 24.0057 228.834 24.0777 228.954 24.1563C229.025 24.1989 229.091 24.2463 229.163 24.2889C229.455 24.4623 229.742 24.6489 230.028 24.8415C230.207 24.9561 230.381 25.0755 230.553 25.1901C230.732 25.3095 230.907 25.4301 231.078 25.5567C231.114 25.5813 231.15 25.6041 231.18 25.6221C231.209 25.6467 231.245 25.6647 231.276 25.6875C231.341 25.7349 231.408 25.7841 231.473 25.8249C231.484 25.8363 231.502 25.8429 231.515 25.8543C231.527 25.8609 231.54 25.8723 231.551 25.8789C231.79 26.0469 232.023 26.2155 232.256 26.3955C232.285 26.4201 232.316 26.4381 232.345 26.4609C232.542 26.6049 232.734 26.7489 232.93 26.8989C232.995 26.9529 233.067 27.0063 233.139 27.0609C233.365 27.2289 233.586 27.4029 233.807 27.5889C233.825 27.6003 233.843 27.6183 233.861 27.6315C233.907 27.6669 233.957 27.7035 234.004 27.7461C234.051 27.7815 234.093 27.8181 234.14 27.8535C234.469 28.1235 234.798 28.4061 235.126 28.6809C235.461 28.9689 235.788 29.2569 236.117 29.5575C236.397 29.8089 236.672 30.0675 236.946 30.3309C236.982 30.3603 237.011 30.3963 237.048 30.4269C237.053 30.4299 237.056 30.4353 237.059 30.4383C237.064 30.4413 237.068 30.4467 237.071 30.4497L237.089 30.4677C237.225 30.5937 237.375 30.7443 237.506 30.8763C237.661 31.0269 237.811 31.1823 237.967 31.3323V31.3389C238.128 31.4943 238.278 31.6509 238.428 31.8129C238.475 31.8603 238.523 31.9095 238.57 31.9635C238.589 31.9815 238.613 32.0061 238.631 32.0241C238.684 32.0847 238.738 32.1387 238.798 32.1975C238.809 32.2089 238.815 32.2221 238.827 32.2335C238.852 32.2581 238.875 32.2809 238.899 32.3121C238.982 32.3955 239.066 32.4855 239.143 32.5755C239.346 32.7915 239.537 33.0075 239.733 33.2229C239.87 33.3735 240.002 33.5349 240.14 33.6903C240.271 33.8457 240.408 34.0023 240.539 34.1529C240.546 34.1643 240.557 34.1709 240.564 34.1823C240.678 34.3149 240.785 34.4403 240.893 34.5729C241 34.7055 241.107 34.8429 241.214 34.9749C241.244 35.0103 241.274 35.0403 241.304 35.0763C241.31 35.0829 241.315 35.0943 241.328 35.1057C241.335 35.1171 241.346 35.1297 241.358 35.1411C241.418 35.2131 241.477 35.2917 241.537 35.3685C241.555 35.3865 241.573 35.4111 241.584 35.4339C241.637 35.4993 241.691 35.5665 241.745 35.6319C241.841 35.7513 241.931 35.8659 242.013 35.9871C242.037 36.0117 242.055 36.0411 242.073 36.0657C242.259 36.3057 242.438 36.5463 242.616 36.7851C246.95 42.7005 249.822 49.4151 251.262 56.5011H262.778C263.076 52.8537 263.465 49.1997 263.925 45.5385V45.5319C263.758 45.0153 263.59 44.4999 263.418 43.9839L263.411 43.9869V43.9881L263.413 43.9875Z" fill="url(#paint10_linear_204_761)" stroke="url(#paint11_linear_204_761)" stroke-width="1.2" stroke-linejoin="round"/>
<path d="M259.239 101.503H266.373C266.057 102.301 265.752 103.069 265.442 103.843C264.612 105.924 263.777 108.013 262.685 110.634C261.176 114.264 259.174 118.913 257.175 123.558C256.434 124.506 255.67 125.431 254.888 126.343C252.261 128.1 249.635 129.864 246.554 131.898C243.079 134.19 239.037 136.836 235.892 138.882C233.515 140.418 231.659 141.618 229.802 142.818C227.986 143.988 226.173 145.152 223.945 146.562C220.989 148.44 217.307 150.75 213.617 153.058C212.495 153.378 211.371 153.67 210.245 153.94C206.794 153.987 203.343 154.036 199.421 153.964C195.164 153.885 190.353 153.665 186.711 153.394C184.066 153.202 182.042 152.985 180.036 152.764C178.131 152.548 176.25 152.332 174.036 151.937C171.236 151.438 167.904 150.658 164.573 149.879C163.599 149.422 162.638 148.943 161.688 148.445C158.984 146.764 156.285 145.092 152.745 142.186C148.977 139.103 144.254 134.627 143.538 133.907C143.448 133.818 143.424 133.788 143.402 133.757L137.897 127.878L138.786 128.813C138.81 128.838 138.84 128.867 138.864 128.892C139.329 129.366 139.79 129.84 140.267 130.314C140.528 130.584 140.804 130.854 141.072 131.118C141.568 131.61 142.08 132.103 142.613 132.6C143.442 133.372 144.326 134.16 145.299 134.975C145.872 135.456 146.481 135.941 147.108 136.426C147.275 136.559 147.443 136.69 147.615 136.822C147.937 137.068 148.266 137.314 148.602 137.566C148.919 137.8 149.234 138.034 149.556 138.263C150.41 138.881 151.269 139.481 152.117 140.038C152.864 140.537 153.597 141.011 154.301 141.436C154.69 141.676 155.07 141.904 155.441 142.114C157.728 143.422 159.573 144.202 161.394 144.921C163.107 145.6 164.798 146.23 166.94 146.589C169.418 147.003 172.499 147.064 175.656 147.07C176.111 147.076 176.565 147.076 177.018 147.076C177.262 147.106 177.514 147.13 177.759 147.148C178.618 147.245 179.478 147.317 180.344 147.371C180.773 147.461 181.198 147.544 181.628 147.629C182.487 147.802 183.348 147.97 184.219 148.128C186.404 148.519 188.656 148.836 191.109 148.962C193.241 149.076 195.528 149.04 197.731 148.89C198.829 148.818 199.905 148.716 200.937 148.591C201.146 148.561 201.355 148.536 201.559 148.512C202.371 148.398 203.147 148.278 203.876 148.139C205.652 147.808 207.14 147.4 208.523 146.944C208.721 146.878 208.917 146.813 209.111 146.746C209.63 146.573 210.133 146.386 210.639 146.2C212.005 145.697 213.36 145.169 214.782 144.436C215.171 144.238 215.564 144.022 215.964 143.782C215.964 143.782 215.964 143.788 215.971 143.782C216.239 143.626 216.507 143.463 216.783 143.29C216.884 143.224 216.986 143.158 217.088 143.092C217.44 142.865 217.803 142.612 218.168 142.348C218.736 141.946 219.314 141.508 219.905 141.04C220.455 140.62 221.01 140.171 221.564 139.697C222.382 139.025 223.218 138.31 224.053 137.573C224.071 137.561 224.096 137.543 224.113 137.519C224.811 136.912 225.522 136.283 226.226 135.653C226.352 135.546 226.483 135.431 226.609 135.317C226.859 135.162 227.116 134.998 227.367 134.836C227.617 134.68 227.874 134.517 228.125 134.355C228.626 134.032 229.122 133.702 229.616 133.365C229.623 133.365 229.623 133.358 229.628 133.358C230.01 133.207 230.385 133.059 230.768 132.909C233.454 131.828 236.153 130.682 238.952 128.96C242.492 126.782 246.189 123.693 248.756 120.991C249.974 119.708 250.941 118.509 251.795 117.331C252.309 116.63 252.786 115.933 253.251 115.232C253.258 115.232 253.258 115.225 253.258 115.225C254.505 113.354 255.71 111.439 256.798 108.823C257.276 107.689 257.728 106.417 258.164 105.055C258.517 103.969 258.863 102.823 259.197 101.641C259.209 101.594 259.221 101.545 259.239 101.497V101.504V101.503Z" fill="url(#paint12_linear_204_761)" stroke="url(#paint13_linear_204_761)" stroke-width="1.2" stroke-linejoin="round"/>
<path d="M49 4.00168H8.8252L4 22.0005H30.9994V154.002H49V4.00168Z" fill="url(#paint14_linear_204_761)" stroke="url(#paint15_linear_204_761)" stroke-width="1.2" stroke-miterlimit="10"/>
<path d="M332.653 60.8799H334.508V61.3665H333.885V62.8509H333.275V61.3665H332.652V60.8799H332.653Z" fill="white"/>
<path d="M334.778 60.8799H335.581L335.736 61.4799L335.891 62.0799L336.045 61.4799L336.198 60.8799H337.001V62.8521H336.501V61.3491L336.308 62.1009L336.116 62.8527H335.664L335.472 62.1009L335.279 61.3491V62.8521H334.779V60.8799H334.779H334.778Z" fill="white"/>
<path fill-rule="evenodd" clip-rule="evenodd" d="M328.231 67.3617C327.857 67.2507 327.278 67.0989 326.501 66.9087C325.722 66.7191 324.743 66.4923 323.567 66.2271C322.746 66.0555 321.879 65.9133 320.966 65.8035C320.054 65.6955 319.096 65.6187 318.09 65.5773L317.208 65.5371L316.325 65.4957V77.1399C316.67 77.1087 317.009 77.0793 317.343 77.0553C317.677 77.0301 318.008 77.0091 318.333 76.9995C318.657 76.9797 318.986 76.9629 319.32 76.9515C319.653 76.9389 319.986 76.9287 320.321 76.9191C320.655 76.9095 320.981 76.8999 321.297 76.8879C321.613 76.8783 321.923 76.8681 322.227 76.8567C322.491 76.8471 322.805 76.8375 323.171 76.8297C323.536 76.8213 323.952 76.8159 324.419 76.8159C325.079 76.8159 325.858 76.8357 326.764 76.8747C327.669 76.9125 328.698 76.9677 329.855 77.0397L328.029 79.4091L326.202 81.7779C325.38 81.4953 324.545 81.2469 323.69 81.0339C322.835 80.8215 321.963 80.6433 321.071 80.5029C320.614 80.4213 320.188 80.3559 319.799 80.3031C319.407 80.2497 319.053 80.2101 318.739 80.1795C318.424 80.1477 318.064 80.1237 317.661 80.1057C317.258 80.0877 316.811 80.0775 316.325 80.0775V92.3685H318.252C318.76 92.3685 319.21 92.3589 319.608 92.3379C320.006 92.3181 320.352 92.2869 320.645 92.2467C320.949 92.2149 321.395 92.1645 321.99 92.0925C322.583 92.0193 323.323 91.9221 324.216 91.8015C324.977 91.7001 325.655 91.6083 326.255 91.5237C326.854 91.4385 327.37 91.3569 327.807 91.2753C328.253 91.1937 328.724 91.0917 329.224 90.9759C329.723 90.8595 330.251 90.7275 330.809 90.5871C331.368 90.4347 331.901 90.2925 332.41 90.1569C332.919 90.0195 333.405 89.8887 333.872 89.7561L332.249 92.7429L330.626 95.7303H308.535C308.555 95.7303 308.617 95.6481 308.719 95.4897C308.82 95.3295 308.963 95.0925 309.144 94.7787C309.266 94.5159 309.362 94.2471 309.438 93.9693C309.515 93.6915 309.569 93.4023 309.609 93.0999C309.65 92.7975 309.68 92.5221 309.702 92.2851C309.721 92.0469 309.732 91.8453 309.732 91.6839V66.1293C309.732 66.0585 309.732 65.9673 309.731 65.8527C309.729 65.7381 309.723 65.6025 309.713 65.4405C309.703 65.2689 309.688 65.0907 309.666 64.9095C309.645 64.7277 309.621 64.5399 309.59 64.3467C309.57 64.1445 309.534 63.9525 309.487 63.7653C309.44 63.5781 309.378 63.3957 309.306 63.2121C309.256 63.1011 309.195 62.9895 309.126 62.8803C309.059 62.7705 308.982 62.6643 308.9 62.5647C308.83 62.4633 308.758 62.3715 308.694 62.2917C308.63 62.2101 308.574 62.1399 308.534 62.0793H331.517L329.874 64.7211L328.231 67.3629V67.3617ZM290.136 92.0259C291.15 92.0259 292.245 91.9653 293.393 91.8489C294.542 91.7331 295.743 91.5597 296.972 91.3371C298.271 91.1151 300.147 90.7749 301.977 90.4005C303.809 90.0255 305.594 89.6157 306.709 89.2509L305.441 92.4915L304.173 95.7321H281.028C281.079 95.6619 281.13 95.5851 281.182 95.4975C281.236 95.4111 281.29 95.3151 281.352 95.2041C281.413 95.0829 281.474 94.9599 281.529 94.8393C281.585 94.7181 281.636 94.5957 281.677 94.4745C281.768 94.2621 281.844 94.0299 281.904 93.7779C281.965 93.5283 282.011 93.2601 282.042 92.9751C282.083 92.6931 282.119 92.4441 282.144 92.2281C282.168 92.0127 282.185 91.8309 282.185 91.6785V66.1239C282.185 65.9625 282.18 65.7597 282.167 65.5191C282.153 65.2791 282.134 65.0007 282.103 64.6869C282.071 64.3827 282.017 64.0887 281.937 63.8091C281.859 63.5277 281.757 63.2595 281.636 63.0063C281.576 62.8953 281.514 62.7939 281.456 62.7021C281.397 62.6103 281.341 62.5305 281.29 62.4585C281.239 62.3883 281.193 62.3211 281.151 62.2587C281.109 62.1951 281.067 62.1345 281.026 62.0739H289.687C289.658 62.0739 289.602 62.1441 289.515 62.2833C289.43 62.4225 289.313 62.6301 289.16 62.9031C289.038 63.1761 288.937 63.4611 288.855 63.7533C288.773 64.0461 288.713 64.3515 288.672 64.6635C288.631 64.9779 288.602 65.2623 288.579 65.5077C288.556 65.7531 288.541 65.9607 288.531 66.1227V92.0205H290.131L290.136 92.0259ZM261.859 92.1465C261.189 92.1363 260.49 92.0403 259.797 91.8609C259.104 91.6803 258.42 91.4175 257.781 91.0737C257.142 90.7293 256.554 90.2895 256.02 89.7579C255.488 89.2269 255.012 88.6041 254.595 87.8955C254.169 87.1767 253.85 86.3865 253.637 85.5219C253.424 84.6555 253.318 83.7153 253.318 82.6923V66.1293C253.328 65.9673 253.354 65.7693 253.386 65.5371C253.419 65.3049 253.461 65.0367 253.502 64.7325C253.552 64.4403 253.613 64.1511 253.682 63.8697C253.751 63.5883 253.826 63.3153 253.907 63.0519C254.05 62.7285 254.161 62.4849 254.242 62.3223C254.324 62.1603 254.373 62.0787 254.394 62.0787H246.3C246.341 62.1603 246.382 62.2455 246.424 62.3415C246.467 62.4381 246.513 62.5443 246.564 62.6649C246.624 62.7861 246.684 62.9181 246.744 63.0621C246.803 63.2061 246.858 63.3627 246.909 63.5367C246.98 63.7389 247.047 63.9567 247.103 64.1883C247.158 64.4205 247.204 64.6695 247.233 64.9323C247.284 65.1957 247.319 65.4279 247.345 65.6289C247.37 65.8287 247.386 65.9967 247.395 66.1281V81.1323C247.395 82.6011 247.508 83.8059 247.73 84.9285C247.952 86.0517 248.289 87.0951 248.733 88.2393C249.179 89.3937 249.743 90.4371 250.418 91.3737C251.092 92.3109 251.878 93.1407 252.771 93.8703C253.673 94.5993 254.663 95.1153 255.737 95.4675C256.812 95.8191 257.974 96.0069 259.221 96.0771C260.113 96.1281 261.001 96.1491 261.888 96.1425C262.776 96.1377 263.664 96.1065 264.557 96.0579C265.805 95.9871 266.966 95.8047 268.04 95.4573C269.116 95.1105 270.104 94.5993 271.007 93.8703C271.899 93.1407 272.68 92.3109 273.35 91.3737C274.02 90.4371 274.577 89.3937 275.024 88.2393C275.481 87.0951 275.82 86.1123 276.046 85.0209C276.272 83.9265 276.383 82.7217 276.383 81.1323V66.1281C276.393 65.9967 276.408 65.8287 276.431 65.6289C276.454 65.4297 276.485 65.1957 276.524 64.9323C276.565 64.6695 276.609 64.4205 276.667 64.1883C276.722 63.9567 276.788 63.7371 276.87 63.5367C276.92 63.3645 276.977 63.2073 277.032 63.0621C277.088 62.9181 277.143 62.7855 277.194 62.6649C277.255 62.5437 277.305 62.4375 277.348 62.3415C277.391 62.2449 277.426 62.1585 277.456 62.0787H269.362C269.393 62.0787 269.447 62.1603 269.529 62.3223C269.611 62.4843 269.716 62.7273 269.849 63.0519C269.94 63.3147 270.021 63.5883 270.092 63.8697C270.162 64.1511 270.224 64.4379 270.276 64.7325C270.317 65.0367 270.353 65.3049 270.382 65.5371C270.413 65.7693 270.438 65.9673 270.458 66.1293V82.6923C270.458 83.7135 270.351 84.6573 270.138 85.5219C269.925 86.3889 269.606 87.1779 269.18 87.8955C268.754 88.6041 268.278 89.2269 267.747 89.7579C267.216 90.2895 266.634 90.7311 265.995 91.0737C265.346 91.4193 264.645 91.6803 263.94 91.8609C263.236 92.0403 262.526 92.1363 261.856 92.1465H261.859ZM242.547 62.8659C242.192 63.0885 241.844 63.3363 241.494 63.6129C241.148 63.8889 240.802 64.1931 240.458 64.5267C240.113 64.8603 239.81 65.1591 239.547 65.4189C239.285 65.6811 239.069 65.9031 238.895 66.0849L233.793 71.7447L228.692 77.4045L234.727 84.5427L240.762 91.6803C240.905 91.8327 241.082 92.0193 241.295 92.2431C241.508 92.4657 241.757 92.7237 242.04 93.0177C242.323 93.3009 242.609 93.5751 242.89 93.8391C243.172 94.1019 243.45 94.3551 243.724 94.5993C243.784 94.6491 243.861 94.7145 243.956 94.7979C244.053 94.8813 244.169 94.9833 244.311 95.1039C244.454 95.2251 244.571 95.3211 244.659 95.3949C244.748 95.4687 244.808 95.5197 244.839 95.5503C244.89 95.5815 244.931 95.6109 244.965 95.6415C245 95.6733 245.031 95.7021 245.062 95.7339H236.989C236.979 95.7339 236.912 95.6223 236.796 95.4045C236.68 95.1873 236.513 94.8633 236.3 94.4367C236.157 94.2045 236.006 93.9609 235.841 93.7077C235.676 93.4545 235.499 93.1911 235.305 92.9181C235.113 92.6451 234.94 92.4015 234.788 92.1939C234.636 91.9863 234.504 91.8147 234.393 91.6821L228.704 84.9087L223.014 78.1353V91.6821C223.034 91.8339 223.059 92.0205 223.091 92.2401C223.122 92.4567 223.156 92.7057 223.197 92.9787C223.238 93.2613 223.294 93.5463 223.359 93.8337C223.425 94.1229 223.502 94.4157 223.582 94.7199C223.602 94.7607 223.628 94.8159 223.659 94.8861C223.69 94.9569 223.724 95.0433 223.766 95.1447C223.816 95.2365 223.857 95.3163 223.887 95.3853C223.916 95.4537 223.937 95.5095 223.947 95.5503C223.967 95.5911 223.983 95.6271 223.998 95.6571C224.012 95.6859 224.029 95.7117 224.049 95.7339H216.422C216.431 95.7339 216.467 95.6571 216.529 95.5065C216.594 95.3541 216.683 95.1273 216.807 94.8231C216.867 94.6707 216.927 94.4991 216.983 94.3047C217.038 94.1097 217.09 93.8925 217.131 93.6489C217.181 93.4167 217.227 93.1977 217.265 92.9931C217.302 92.7873 217.334 92.5959 217.353 92.4129C217.373 92.2413 217.394 92.0943 217.412 91.9731C217.43 91.8519 217.445 91.7559 217.455 91.6839V66.1293C217.455 65.9769 217.445 65.7903 217.43 65.5695C217.416 65.3487 217.394 65.0955 217.375 64.8123C217.355 64.5201 217.319 64.2453 217.263 63.9873C217.208 63.7287 217.133 63.4869 217.031 63.2529C216.999 63.1617 216.96 63.0597 216.911 62.9523C216.864 62.8449 216.808 62.7267 216.746 62.6055C216.675 62.4945 216.615 62.3931 216.561 62.3049C216.506 62.2167 216.461 62.1399 216.422 62.0793H224.049C224.029 62.1099 224.012 62.1399 223.998 62.1705C223.983 62.2011 223.967 62.2311 223.947 62.2617C223.928 62.2923 223.901 62.3433 223.869 62.4087C223.836 62.4741 223.795 62.5557 223.744 62.6475C223.693 62.7489 223.652 62.8305 223.62 62.8959C223.587 62.9613 223.561 63.0123 223.541 63.0525C223.449 63.2955 223.369 63.5529 223.302 63.8289C223.235 64.1055 223.185 64.3977 223.154 64.7115C223.113 65.0253 223.084 65.2989 223.061 65.5341C223.038 65.7693 223.023 65.9679 223.014 66.1293V77.4081L227.73 71.7699L232.447 66.1311C232.578 65.9787 232.725 65.7861 232.893 65.5587C233.06 65.3313 233.248 65.0685 233.461 64.7739C233.664 64.4697 233.837 64.1673 233.979 63.8649C234.122 63.5625 234.233 63.2649 234.312 62.9721C234.323 62.9415 234.332 62.8953 234.346 62.8299C234.359 62.7645 234.374 62.6781 234.393 62.5671C234.413 62.4561 234.434 62.3643 234.452 62.2857C234.47 62.2071 234.485 62.1417 234.495 62.0793H243.866C243.815 62.0793 243.683 62.1447 243.465 62.2773C243.247 62.4099 242.943 62.6055 242.547 62.8695H242.549L242.547 62.8647V62.8659ZM211.085 63.3519V69.1833L210.345 68.6979L209.605 68.2119C209.036 67.8375 208.504 67.5189 208.003 67.2513C207.502 66.9831 207.029 66.7653 206.583 66.5925C206.147 66.4305 205.605 66.3093 204.955 66.2277C204.306 66.1461 203.55 66.1065 202.688 66.1065C201.866 66.1263 201.107 66.2535 200.399 66.4887C199.691 66.7251 199.038 67.0695 198.428 67.5237C197.829 67.9803 197.378 68.4807 197.077 69.0219C196.776 69.5625 196.623 70.1451 196.623 70.7631C196.623 71.1273 196.664 71.4705 196.743 71.7975C196.821 72.1245 196.938 72.4335 197.09 72.7263C197.253 73.0089 197.436 73.2723 197.644 73.5159C197.852 73.7595 198.084 73.9815 198.348 74.1849C198.612 74.3973 198.902 74.6043 199.216 74.8089C199.531 75.0153 199.87 75.2157 200.235 75.4191C200.61 75.6315 201.001 75.8439 201.409 76.0617C201.817 76.2789 202.243 76.5009 202.69 76.7349C203.917 77.3823 204.931 77.9139 205.738 78.3339C206.544 78.7539 207.143 79.0629 207.538 79.2657C207.923 79.4685 208.334 79.7121 208.769 79.9947C209.205 80.2779 209.667 80.6013 210.153 80.9679C210.64 81.3225 211.082 81.7167 211.477 82.1451C211.871 82.5729 212.222 83.0337 212.526 83.5197C212.831 84.0147 213.059 84.5415 213.212 85.0995C213.363 85.6569 213.439 86.2437 213.439 86.8599C213.357 87.7005 213.139 88.5045 212.79 89.2749C212.44 90.0429 211.958 90.7785 211.35 91.4769C210.732 92.1651 210.017 92.7831 209.205 93.3261C208.394 93.8703 207.485 94.3407 206.482 94.7349C205.478 95.1405 204.428 95.4381 203.332 95.6355C202.236 95.8341 201.095 95.9283 199.909 95.9283C199.108 95.9091 198.336 95.8725 197.6 95.8227C196.861 95.7717 196.157 95.7063 195.487 95.6247C194.807 95.5329 194.169 95.4213 193.568 95.2881C192.966 95.1537 192.405 94.9965 191.876 94.8135V88.0497L192.94 88.8903L194.004 89.7309C194.512 90.1461 195.003 90.5043 195.477 90.8085C195.952 91.1121 196.407 91.3605 196.845 91.5525C197.28 91.7451 197.768 91.8855 198.297 91.9821C198.828 92.0781 199.4 92.1291 200.009 92.1387C200.87 92.1387 201.671 92.0277 202.405 91.8021C203.139 91.5765 203.802 91.2381 204.39 90.7815C204.99 90.3255 205.44 89.8065 205.742 89.2125C206.043 88.6209 206.195 87.9567 206.195 87.2175C206.134 86.8125 206.028 86.4333 205.88 86.0781C205.733 85.7235 205.547 85.3947 205.322 85.0905C205.099 84.7983 204.845 84.5235 204.56 84.2703C204.277 84.0165 203.961 83.7843 203.617 83.5719C203.283 83.3595 202.867 83.1207 202.374 82.8609C201.883 82.6011 201.315 82.3167 200.675 82.0125C200.027 81.6987 199.529 81.4551 199.18 81.2829C198.831 81.1113 198.627 81.0105 198.566 80.9787C198.171 80.7663 197.724 80.5179 197.228 80.2407C196.732 79.9623 196.183 79.6533 195.585 79.3179C194.997 78.9945 194.465 78.6705 193.99 78.3507C193.515 78.0309 193.101 77.7171 192.745 77.4135C192.39 77.1207 192.071 76.7955 191.783 76.4409C191.492 76.0863 191.235 75.7017 191.001 75.2865C190.778 74.8713 190.595 74.4105 190.451 73.9017C190.307 73.3929 190.2 72.8355 190.128 72.2277C190.128 71.5683 190.214 70.9167 190.383 70.2705C190.554 69.6249 190.808 68.9871 191.142 68.3595C191.475 67.7319 191.877 67.1397 192.346 66.5823C192.814 66.0243 193.353 65.5053 193.961 65.0175C194.568 64.5225 195.223 64.0809 195.918 63.6969C196.612 63.3129 197.348 62.9823 198.119 62.7093C198.9 62.4261 199.696 62.2137 200.51 62.0721C201.324 61.9299 202.156 61.8597 203.007 61.8597C204.692 61.8795 206.208 62.0163 207.554 62.2647C208.901 62.5131 210.078 62.8713 211.08 63.3387L211.085 63.3519Z" fill="white"/>
<path fill-rule="evenodd" clip-rule="evenodd" d="M268.035 63.4263C267.549 63.9021 267.107 64.4937 266.646 65.0055C266.184 65.5173 265.703 65.9469 265.135 66.0993C264.719 66.2109 264.409 66.0291 264.157 65.7117C263.905 65.3949 263.705 64.9449 263.514 64.5201C263.421 64.8843 263.158 65.5779 262.806 66.1947C262.454 66.8091 262.013 67.3455 261.566 67.3959C260.978 67.4565 260.543 67.0917 260.177 66.6129C259.812 66.1353 259.517 65.5419 259.214 65.1465C259.133 65.7741 259.042 67.5459 258.762 69.2241C258.483 70.9011 258.017 72.4869 257.185 72.7407C255.999 73.0947 255.476 71.8395 255.247 70.5051C255.02 69.1713 255.085 67.7589 255.075 67.7997C255.066 67.8501 254.817 67.9923 254.469 68.0679C254.122 68.1447 253.676 68.1525 253.271 67.9419C252.561 67.5777 251.987 66.7467 251.536 65.9145C251.084 65.0823 250.755 64.2471 250.532 63.8727C250.349 64.7949 250.259 65.7351 250.172 66.5181C250.085 67.3011 250.005 67.9221 249.843 68.2065C249.671 68.5107 249.342 68.5665 248.987 68.5455C248.636 68.5251 248.26 68.4291 247.997 68.4291C248.241 69.2595 248.493 70.1457 248.608 70.9221C248.722 71.6991 248.696 72.3675 248.382 72.7629C248.058 73.1685 247.748 73.4013 247.397 73.5201C247.047 73.6395 246.657 73.6443 246.17 73.5939C246.94 74.0091 247.965 75.4167 248.78 76.8567C249.594 78.2973 250.196 79.7703 250.126 80.3169C250.055 80.8623 249.188 81.2241 248.183 81.4527C247.179 81.6837 246.038 81.7845 245.42 81.8139C246.081 82.1685 246.668 82.4823 247.247 82.7961C247.825 83.1099 248.393 83.4249 249.011 83.7789C249.63 84.1341 250.208 84.5835 250.76 84.9969C251.313 85.4091 251.839 85.7835 252.356 85.9875C252.874 86.2005 253.433 86.3217 253.938 86.4225C254.446 86.5239 254.901 86.6055 255.216 86.7363C255.095 87.3429 254.871 88.0329 254.605 88.6809C254.339 89.3277 254.029 89.9361 253.736 90.3807C253.443 90.8271 253.101 91.4031 252.701 91.8897C252.299 92.3751 251.839 92.7711 251.3 92.8515L251.593 93.7209L251.886 94.5909C252.344 94.6215 252.612 94.3731 252.789 94.0491C252.966 93.7257 253.053 93.3255 253.144 93.0519C253.236 92.7795 253.914 91.5891 254.656 90.3183C255.396 89.0487 256.197 87.6963 256.533 87.0981C256.533 87.0981 256.979 87.5685 257.529 88.0971C258.079 88.6263 258.732 89.2137 259.149 89.4459C259.574 89.6895 260.194 89.8809 260.86 90.0861C261.527 90.2925 262.242 90.5103 262.862 90.8025C263.48 91.0851 263.957 91.3437 264.424 91.6005C264.891 91.8555 265.348 92.1087 265.924 92.3817C265.6 91.8147 265.088 91.0347 264.699 90.2847C264.311 89.5323 264.048 88.8093 264.221 88.3533C264.393 87.8877 264.9 87.5847 265.575 87.3921C266.25 87.1989 267.092 87.1191 267.934 87.0999C268.785 87.0681 269.765 87.1239 270.653 87.1911C271.541 87.2565 272.336 87.3333 272.823 87.3429C272.508 86.8869 272.179 86.5635 271.943 86.2293C271.707 85.8963 271.565 85.5519 271.627 85.0557C271.678 84.5601 272.612 84.0585 273.531 83.6811C274.452 83.3031 275.36 83.0517 275.36 83.0517C275.36 83.0517 275.142 82.8441 274.967 82.5333C274.791 82.2231 274.661 81.8073 274.832 81.3921C274.994 80.9769 275.517 80.4501 276.154 79.9173C276.791 79.3827 277.541 78.8415 278.16 78.3969C277.643 78.4383 276.735 78.5277 275.802 78.5505C274.869 78.5739 273.91 78.5277 273.291 78.2955C272.672 78.0735 272.353 77.6631 272.19 77.3085C272.028 76.9533 272.024 76.6557 272.034 76.6557C272.043 76.6557 270.897 77.5323 269.679 78.1239C268.463 78.7161 267.174 79.0251 266.901 77.8923C266.678 76.9911 267.631 75.7257 268.763 74.5731C269.894 73.4223 271.201 72.3837 271.688 71.9373C271.039 71.8767 270.222 71.9181 269.565 71.8527C268.908 71.7873 268.412 71.6139 268.402 71.1285C268.382 70.4205 268.753 69.5943 269.127 68.9475C269.503 68.2995 269.883 67.8291 269.883 67.8291C269.883 67.8291 269.416 67.8849 268.913 67.8621C268.412 67.8387 267.873 67.7373 267.732 67.4235C267.5 66.9069 267.5 66.2697 267.594 65.5815C267.692 64.8927 267.884 64.1541 268.035 63.4341V63.4263Z" fill="white"/>
<path d="M251.965 94.8717C251.934 94.8717 251.901 94.8717 251.87 94.8687L251.682 94.8555L250.925 92.6193L251.258 92.5683C251.652 92.5095 252.052 92.2263 252.483 91.7067C252.774 91.3521 253.04 90.9381 253.274 90.5721C253.352 90.4497 253.427 90.3315 253.5 90.2223C253.782 89.7951 254.081 89.2089 254.345 88.5693C254.579 87.9987 254.769 87.4197 254.889 86.9145C254.659 86.8479 254.373 86.7909 254.055 86.7285L253.884 86.6943C253.379 86.5929 252.794 86.4669 252.25 86.2431C251.695 86.0253 251.148 85.6347 250.591 85.2177L250.377 85.0575C249.893 84.6945 249.394 84.3201 248.87 84.0195C248.316 83.7021 247.773 83.3997 247.11 83.0397C246.706 82.8213 246.297 82.6005 245.862 82.3683L244.395 81.5799L245.405 81.5313C246.123 81.4965 247.214 81.3843 248.12 81.1767C249.158 80.9379 249.803 80.6025 249.846 80.2773C249.895 79.8981 249.453 78.6177 248.534 76.9911C247.628 75.3873 246.67 74.1789 246.036 73.8369L246.198 73.3089C246.698 73.3617 247.031 73.3437 247.306 73.2483C247.61 73.1457 247.874 72.9393 248.16 72.5817C248.387 72.2973 248.444 71.7495 248.328 70.9581C248.219 70.2195 247.98 69.3753 247.725 68.5029L247.619 68.1429H247.995C248.154 68.1429 248.333 68.1711 248.522 68.2005C248.683 68.2245 248.847 68.2509 249.002 68.2593C249.414 68.2833 249.533 68.1729 249.596 68.0625C249.744 67.8015 249.833 67.0083 249.89 66.4815L249.921 66.2025C249.999 65.4699 250.09 64.6395 250.255 63.8139L250.398 63.0945L250.773 63.7257C250.884 63.9123 251.017 64.1961 251.168 64.5267C251.344 64.9077 251.544 65.3403 251.781 65.7789C252.329 66.7875 252.858 67.4127 253.397 67.6899C253.755 67.8783 254.145 67.8501 254.407 67.7919C254.6 67.7487 254.745 67.6869 254.817 67.6479L254.849 67.4847L255.111 67.5171C255.36 67.5495 255.357 67.7901 255.357 67.8927C255.345 68.8725 255.401 69.7335 255.526 70.4547C255.702 71.4831 256.007 72.1581 256.407 72.4065C256.605 72.5295 256.833 72.5487 257.105 72.4671C257.432 72.3675 258.046 71.8065 258.485 69.1749C258.675 68.0289 258.777 66.8547 258.85 65.9967C258.884 65.6109 258.909 65.3067 258.936 65.1051L259.022 64.4313L259.439 64.9713C259.594 65.1741 259.742 65.4141 259.898 65.6697C260.057 65.9307 260.222 66.2007 260.401 66.4377C260.788 66.9441 261.14 67.1523 261.538 67.1097C261.82 67.0785 262.194 66.6909 262.562 66.0471C262.886 65.4813 263.148 64.8123 263.24 64.4469L263.436 63.6615L263.802 64.4679C263.978 64.8567 264.16 65.2587 264.378 65.5305C264.653 65.8749 264.879 65.8719 265.065 65.8215C265.604 65.6775 266.061 65.2299 266.439 64.8111C266.612 64.6197 266.783 64.4151 266.954 64.2111C267.236 63.8727 267.529 63.5241 267.84 63.2187L268.505 62.5701L268.314 63.4791C268.268 63.6951 268.219 63.9129 268.17 64.1295C268.058 64.6239 267.942 65.1357 267.876 65.6061C267.771 66.3537 267.809 66.8901 267.991 67.2951C268.04 67.4031 268.316 67.5399 268.928 67.5681C269.398 67.5897 269.845 67.5369 269.85 67.5369L270.536 67.4553L270.102 67.9917C270.102 67.9917 269.731 68.4543 269.372 69.0741C268.907 69.8763 268.67 70.5795 268.684 71.1075C268.686 71.2173 268.691 71.4687 269.595 71.5605C269.919 71.5935 270.296 71.5983 270.66 71.6049C271.018 71.6097 271.388 71.6163 271.715 71.6469L272.348 71.7057L271.88 72.1347C271.737 72.2655 271.526 72.4449 271.27 72.6627C270.633 73.2051 269.762 73.9479 268.964 74.7579C267.284 76.4685 267.064 77.3631 267.176 77.8125C267.234 78.0531 267.344 78.2079 267.516 78.2901C267.896 78.4695 268.622 78.3171 269.557 77.8611C270.594 77.3583 271.617 76.6155 271.821 76.4571L271.88 76.3641H272.258L272.309 76.5813C272.322 76.6401 272.331 76.6809 272.317 76.7283C272.327 76.8165 272.359 76.9887 272.448 77.1813C272.63 77.5803 272.947 77.8611 273.388 78.0195C273.882 78.2067 274.69 78.2847 275.795 78.2583C276.536 78.2403 277.258 78.1785 277.785 78.1347L279.14 78.0261L278.324 78.6135C277.723 79.0467 276.973 79.5861 276.336 80.1225C275.639 80.7093 275.22 81.1671 275.096 81.4845C274.985 81.7503 275.025 82.0515 275.214 82.3869C275.364 82.6545 275.555 82.8381 275.556 82.8399L275.912 83.1813L275.437 83.3139C275.429 83.3151 274.532 83.5671 273.64 83.9331C272.037 84.5907 271.917 85.0011 271.909 85.0761C271.856 85.5045 271.977 85.7787 272.175 86.0601C272.274 86.2011 272.395 86.3451 272.525 86.4969C272.69 86.6931 272.877 86.9133 273.059 87.1773L273.37 87.6297L272.82 87.6183C272.471 87.6123 271.976 87.5709 271.403 87.5247C271.158 87.5055 270.9 87.4845 270.633 87.4647C269.843 87.4059 268.823 87.3435 267.945 87.3747C267.003 87.3981 266.234 87.4923 265.654 87.6573C265.005 87.8427 264.612 88.1085 264.486 88.4475C264.37 88.7565 264.527 89.3283 264.951 90.1527C265.199 90.6315 265.502 91.1283 265.769 91.5687C265.918 91.8117 266.055 92.0391 266.17 92.2407L266.616 93.0171L265.806 92.6343C265.253 92.3727 264.801 92.1243 264.367 91.8873L264.29 91.8459C263.797 91.5765 263.342 91.3317 262.745 91.0581C262.155 90.7785 261.479 90.5715 260.824 90.3681L260.778 90.3555C260.136 90.1575 259.473 89.9529 259.01 89.6901C258.644 89.4855 258.08 89.0175 257.333 88.2987C257.039 88.0173 256.773 87.7503 256.59 87.5631C256.363 87.9585 256.045 88.5009 255.689 89.1057C255.434 89.5425 255.162 90.0051 254.898 90.4581C254.556 91.0467 253.511 92.8365 253.411 93.1389C253.388 93.2097 253.364 93.2895 253.339 93.3729C253.269 93.6171 253.181 93.9177 253.037 94.1805C252.786 94.6401 252.424 94.8705 251.964 94.8705H251.965V94.8723V94.8717ZM251.664 93.0435L252.088 94.2993C252.276 94.2627 252.419 94.1409 252.545 93.9117C252.659 93.7023 252.735 93.4437 252.802 93.2151C252.83 93.1233 252.854 93.0369 252.879 92.9601C252.963 92.7099 253.421 91.8765 254.414 90.1737C254.677 89.7213 254.949 89.2569 255.206 88.8207C255.671 88.0257 256.074 87.3411 256.289 86.9583L256.476 86.6253L256.739 86.9025C256.739 86.9025 257.188 87.3753 257.727 87.8931C258.43 88.5687 258.97 89.0217 259.289 89.1999C259.699 89.4339 260.333 89.6283 260.946 89.8161L260.991 89.8293C261.664 90.0369 262.36 90.2505 262.985 90.5469C263.594 90.8265 264.059 91.0767 264.562 91.3515L264.639 91.3935C264.822 91.4937 265.001 91.5915 265.185 91.6911C264.942 91.2873 264.676 90.8457 264.452 90.4107C263.936 89.4123 263.781 88.7271 263.958 88.2513C264.149 87.7383 264.668 87.3555 265.5 87.1185C266.126 86.9403 266.942 86.8389 267.929 86.8143C268.831 86.7837 269.871 86.8461 270.675 86.9061C270.942 86.9259 271.203 86.9469 271.448 86.9667C271.733 86.9889 271.997 87.0111 272.231 87.0273C272.186 86.9715 272.138 86.9157 272.094 86.8623C271.958 86.7003 271.829 86.5467 271.715 86.3883C271.489 86.0685 271.27 85.6557 271.35 85.0161C271.404 84.4827 272.064 83.9751 273.427 83.4153C273.977 83.1897 274.518 83.0103 274.874 82.8993C274.824 82.8291 274.773 82.7505 274.724 82.6647C274.451 82.1793 274.4 81.7005 274.575 81.2787C274.736 80.8671 275.183 80.3613 275.976 79.6959C276.355 79.3773 276.781 79.0521 277.186 78.7527C276.768 78.7839 276.295 78.8133 275.811 78.8265C274.618 78.8559 273.762 78.7659 273.196 78.5529C272.465 78.2901 272.109 77.7915 271.938 77.4201C271.915 77.3715 271.874 77.2713 271.838 77.1525C271.738 77.2227 271.617 77.3025 271.473 77.3991C271.068 77.6691 270.453 78.0579 269.808 78.3717C268.666 78.9261 267.84 79.0683 267.279 78.8037C266.948 78.6483 266.73 78.3621 266.63 77.9517C266.415 77.0853 267.048 75.9147 268.564 74.3709C269.378 73.5441 270.261 72.7899 270.906 72.2409C270.931 72.2199 270.956 72.2001 270.978 72.1785C270.87 72.1773 270.762 72.1737 270.654 72.1737C270.278 72.1671 269.888 72.1623 269.541 72.1269C269.195 72.0921 268.142 71.9859 268.124 71.1297C268.106 70.4901 268.363 69.7071 268.887 68.8011C269.033 68.5497 269.179 68.3241 269.304 68.1405C269.18 68.1423 269.044 68.1423 268.905 68.1357C268.112 68.1003 267.647 67.9023 267.48 67.5327C267.251 67.0275 267.2 66.3915 267.321 65.5347C267.372 65.1669 267.451 64.7859 267.534 64.4067C267.485 64.4643 267.438 64.5213 267.39 64.5783C267.215 64.7877 267.039 64.9971 266.861 65.1945C266.429 65.6757 265.893 66.1887 265.214 66.3717C264.73 66.5013 264.303 66.3369 263.941 65.8899C263.799 65.7111 263.674 65.4999 263.559 65.2767C263.428 65.6085 263.255 65.9829 263.053 66.3339C262.575 67.1691 262.085 67.6209 261.6 67.6761C260.801 67.7583 260.277 67.2075 259.956 66.7851C259.76 66.5271 259.586 66.2457 259.421 65.9733C259.419 65.9991 259.416 66.0249 259.414 66.0513C259.338 66.9177 259.237 68.1051 259.044 69.2739C258.662 71.5719 258.099 72.7611 257.271 73.0125C256.841 73.1421 256.451 73.1013 256.114 72.8919C255.565 72.5517 255.182 71.7669 254.975 70.5573C254.862 69.8979 254.804 69.1311 254.799 68.2749C254.69 68.3103 254.592 68.3337 254.535 68.3469C254.181 68.4237 253.652 68.4609 253.144 68.1945C252.503 67.8645 251.897 67.1643 251.294 66.0531C251.049 65.6037 250.84 65.1489 250.67 64.7811C250.594 65.2977 250.538 65.8041 250.49 66.2721L250.458 66.5517C250.368 67.3659 250.284 68.0133 250.094 68.3487C249.793 68.8767 249.179 68.8389 248.978 68.8287C248.796 68.8191 248.608 68.7897 248.444 68.7633C248.426 68.7603 248.408 68.7585 248.39 68.7555C248.604 69.5043 248.796 70.2255 248.892 70.8837C249.035 71.8485 248.942 72.5223 248.609 72.9387C248.255 73.3803 247.902 73.6491 247.495 73.7877C247.345 73.8399 247.184 73.8729 247.008 73.8909C247.89 74.7633 248.745 76.2111 249.032 76.7187C249.726 77.9481 250.504 79.6377 250.413 80.3535C250.334 80.9631 249.628 81.4125 248.253 81.7281C247.664 81.8643 247.001 81.9603 246.405 82.0209C246.743 82.2021 247.067 82.3761 247.388 82.5507C248.054 82.9119 248.6 83.2161 249.158 83.5365C249.713 83.8539 250.226 84.2391 250.724 84.6123L250.937 84.7725C251.441 85.1487 251.973 85.5327 252.468 85.7259C252.969 85.9311 253.523 86.0511 254.003 86.1471L254.171 86.1819C254.631 86.2719 255.028 86.3499 255.334 86.4795L255.547 86.5677L255.501 86.7933C255.381 87.3933 255.164 88.0833 254.876 88.7895C254.6 89.4615 254.281 90.0807 253.982 90.5385C253.911 90.6471 253.837 90.7611 253.76 90.8823C253.518 91.2615 253.243 91.6911 252.93 92.0721C252.512 92.5773 252.101 92.9013 251.677 93.0513H251.675L251.664 93.0435Z" fill="white"/>
<path fill-rule="evenodd" clip-rule="evenodd" d="M267.731 67.4139C267.873 67.7277 268.41 67.8291 268.911 67.8519C269.412 67.8753 269.881 67.8195 269.881 67.8195C269.881 67.8195 269.501 68.2899 269.126 68.9379C268.751 69.5847 268.38 70.4103 268.4 71.1183C268.41 71.6043 268.907 71.7771 269.564 71.8425C270.221 71.9085 271.036 71.8671 271.686 71.9277C271.199 72.3723 269.891 73.4109 268.761 74.5635C267.629 75.7143 266.676 76.9815 266.899 77.8821C267.173 79.0167 268.461 78.7077 269.678 78.1143C270.895 77.5227 272.042 76.6461 272.032 76.6461C272.022 76.6461 272.027 76.9449 272.189 77.2983C272.351 77.6535 272.67 78.0639 273.289 78.2859C273.909 78.5181 274.867 78.5643 275.8 78.5409C276.734 78.5181 277.641 78.4269 278.159 78.3873C277.539 78.8319 276.789 79.3749 276.153 79.9077C275.515 80.4423 274.993 80.9685 274.83 81.3825C274.659 81.7977 274.79 82.2129 274.965 82.5237C275.141 82.8345 275.358 83.0415 275.358 83.0415C275.358 83.0415 274.451 83.2953 273.53 83.6715C272.61 84.0489 271.676 84.5487 271.625 85.0461C271.565 85.5411 271.707 85.8867 271.941 86.2197C272.177 86.5539 272.507 86.8791 272.821 87.3333C272.335 87.3237 271.537 87.2487 270.651 87.1815C269.763 87.1161 268.785 87.0603 267.932 87.0897C267.09 87.1095 266.249 87.1911 265.574 87.3825C264.899 87.5751 264.393 87.8775 264.219 88.3437C264.047 88.7997 264.311 89.5227 264.698 90.2745C265.086 91.0269 265.599 91.8063 265.923 92.3721C265.344 92.0991 264.888 91.8453 264.422 91.5903C263.955 91.3359 263.479 91.0773 262.86 90.7929C262.241 90.5001 261.527 90.2811 260.858 90.0765C260.192 89.8707 259.572 89.6793 259.147 89.4363C258.731 89.2041 258.077 88.6155 257.527 88.0869C256.977 87.5571 256.531 87.0885 256.531 87.0885C256.197 87.6867 255.395 89.0367 254.654 90.3087C253.914 91.5795 253.235 92.7699 253.143 93.0423C253.051 93.3153 252.966 93.7161 252.788 94.0395C252.61 94.3635 252.342 94.6119 251.885 94.5807L251.592 93.7113L251.298 92.8419C251.835 92.7591 252.297 92.3655 252.699 91.8801C253.1 91.3941 253.439 90.8175 253.734 90.3711C254.027 89.9265 254.337 89.3181 254.604 88.6707C254.871 88.0233 255.093 87.3351 255.215 86.7267C254.9 86.5959 254.445 86.5143 253.937 86.4129C253.429 86.3121 252.872 86.1909 252.355 85.9779C251.837 85.7751 251.31 85.4013 250.758 84.9873C250.205 84.5757 249.627 84.1245 249.009 83.7693C248.39 83.4141 247.823 83.1003 247.245 82.7865C246.666 82.4727 246.079 82.1589 245.418 81.8043C246.038 81.7749 247.179 81.6729 248.182 81.4425C249.186 81.2121 250.052 80.8527 250.124 80.3061C250.195 79.7607 249.592 78.2877 248.778 76.8471C247.964 75.4071 246.939 73.9989 246.169 73.5837C246.655 73.6347 247.047 73.6299 247.395 73.5105C247.744 73.3911 248.056 73.1589 248.38 72.7533C248.694 72.3597 248.719 71.6907 248.606 70.9125C248.491 70.1361 248.237 69.2499 247.995 68.4195C248.259 68.4195 248.634 68.5155 248.986 68.5353C249.338 68.5551 249.669 68.4993 249.841 68.1969C250.003 67.9137 250.085 67.2915 250.17 66.5085C250.255 65.7249 250.347 64.7847 250.53 63.8631C250.753 64.2375 251.084 65.0727 251.534 65.9049C251.987 66.7371 252.558 67.5675 253.269 67.9323C253.675 68.1447 254.12 68.1345 254.468 68.0577C254.815 67.9809 255.064 67.8405 255.074 67.7901C255.084 67.7487 255.018 69.1617 255.246 70.4955C255.473 71.8299 255.996 73.0851 257.183 72.7305C258.015 72.4767 258.482 70.8933 258.761 69.2139C259.039 67.5363 259.131 65.7645 259.212 65.1369C259.517 65.5305 259.812 66.1239 260.176 66.6027C260.541 67.0803 260.976 67.4463 261.564 67.3857C262.01 67.3359 262.452 66.7995 262.804 66.1845C263.156 65.5695 263.42 64.8765 263.512 64.5099C263.705 64.9353 263.903 65.3865 264.155 65.7021C264.408 66.0177 264.719 66.2007 265.133 66.0897C265.701 65.9373 266.183 65.5077 266.645 64.9959C267.107 64.4841 267.547 63.8919 268.034 63.4167C267.881 64.1361 267.689 64.8747 267.593 65.5629C267.497 66.2511 267.497 66.8895 267.731 67.4061V67.4139ZM256.503 85.8897L256.513 85.9095L256.523 85.9287L256.554 85.9191L256.586 85.9095L256.605 85.9191L256.625 85.9287L260.57 88.4301L264.515 90.9315L264.557 90.8715L264.598 90.8109L260.703 88.3305L256.808 85.8501L260.531 84.5439L264.254 83.2377L264.243 83.2479L264.234 83.2575L267.814 84.9693L271.394 86.6811L271.435 86.6103L271.476 86.5407L267.957 84.8595L264.437 83.1789L266.953 82.2981L269.469 81.4167L271.994 82.1463L274.52 82.8747L274.529 82.8045L274.539 82.7343L272.135 82.0359L269.73 81.3381L272.713 80.2947L275.696 79.2525L275.676 79.1823L275.657 79.1115L272.673 80.1447L269.691 81.1779L270.867 79.3959L272.043 77.6139L271.973 77.5731L271.902 77.5323L270.675 79.4061L269.449 81.2793L263.099 83.4861L256.749 85.6935L259.255 80.9145L261.761 76.1361L265.919 74.3751L270.078 72.6141L270.047 72.5325L270.015 72.4509L265.949 74.1825L261.882 75.9141L263.271 73.2405L264.66 70.5675L266.82 69.6063L268.98 68.6451L268.94 68.5749L268.898 68.5041L266.84 69.4263L264.781 70.3485L265.805 68.3829L266.828 66.4185L266.758 66.3771L266.688 66.3369L265.652 68.3115L264.617 70.2867L264.261 68.1903L263.906 66.0945L263.825 66.1143L263.742 66.1341L264.118 68.3313L264.492 70.5285L263.114 73.1805L261.735 75.8325L260.822 71.3979L259.91 66.9645L259.828 66.9837L259.746 67.0035L260.68 71.5287L261.614 76.0539L259.107 80.8431L256.602 85.6317L255.598 82.0677L254.594 78.5037L254.613 78.4623L254.633 78.4221L254.592 78.4017L254.552 78.3825L253.932 76.1751L253.313 73.9683L254.063 71.3163L254.813 68.6643L254.732 68.6451L254.649 68.6253L253.94 71.1561L253.232 73.6869L252.207 70.0311L251.184 66.3759L251.113 66.3951L251.043 66.4155L252.037 69.9579L253.031 73.5009L251.125 71.3949L249.218 69.2889L249.158 69.3399L249.098 69.3909L251.115 71.6169L253.133 73.8435L253.741 76.0413L254.348 78.2385L251.215 76.1427L248.082 74.0469L248.031 74.1075L247.98 74.1681L251.195 76.3239L254.41 78.4803L255.424 82.0755L256.438 85.6689L252.198 83.9181L247.957 82.1673L247.916 82.2375L247.875 82.3077L252.177 84.0801L256.477 85.8519V85.8717L256.487 85.8819L256.497 85.8915V85.8867L256.503 85.8897Z" fill="url(#paint16_linear_204_761)"/>
<path d="M184 56.5209C234.806 55.3005 286.193 55.2903 337 56.5209C286.193 57.7509 234.806 57.7413 184 56.5209Z" fill="white"/>
<path d="M184 101.483C234.806 100.263 286.193 100.252 337 101.483C286.193 102.712 234.806 102.703 184 101.483Z" fill="white"/>
<path d="M173.11 79.0017H154.24C148.204 63.2157 132.91 52.0017 115 52.0017C115 52.0017 114.802 52.0017 114.418 52.0137C111.79 52.0437 109.222 52.3197 106.738 52.8177C95.752 54.6297 75.544 60.4197 56.944 79.0017L56.89 79.0557L56.902 79.0017L61.204 62.9457L76.996 4.00168H175L170.176 22.0017H90.808L85.522 41.7297C94.228 36.8097 104.29 34.0017 115 34.0017C142.96 34.0017 166.45 53.1237 173.11 79.0017Z" fill="url(#paint17_linear_204_761)"/>
<path d="M154.24 79.0017C148.204 63.2157 132.91 52.0017 115 52.0017C115 52.0017 114.802 52.0017 114.418 52.0137C111.79 52.0437 109.222 52.3197 106.738 52.8177C95.752 54.6297 75.544 60.4197 56.944 79.0017L56.89 79.0557L56.902 79.0017L61.204 62.9457L76.996 4.00168H175L170.176 22.0017H90.808L85.522 41.7297C94.228 36.8097 104.29 34.0017 115 34.0017C142.96 34.0017 166.45 53.1237 173.11 79.0017" fill="url(#paint18_linear_204_761)"/>
<path d="M154.24 79.0017C148.204 63.2157 132.91 52.0017 115 52.0017C115 52.0017 114.802 52.0017 114.418 52.0137C111.79 52.0437 109.222 52.3197 106.738 52.8177C95.752 54.6297 75.544 60.4197 56.944 79.0017L56.89 79.0557L56.902 79.0017L61.204 62.9457L76.996 4.00168H175L170.176 22.0017H90.808L85.522 41.7297C94.228 36.8097 104.29 34.0017 115 34.0017C142.96 34.0017 166.45 53.1237 173.11 79.0017" stroke="url(#paint19_linear_204_761)" stroke-width="1.2" stroke-miterlimit="10"/>
</g>
<defs>
<filter id="filter0_d_204_761" x="0.217957" y="0.399999" width="351.783" height="169.202" filterUnits="userSpaceOnUse" color-interpolation-filters="sRGB">
<feFlood flood-opacity="0" result="BackgroundImageFix"/>
<feColorMatrix in="SourceAlpha" type="matrix" values="0 0 0 0 0 0 0 0 0 0 0 0 0 0 0 0 0 0 127 0" result="hardAlpha"/>
<feOffset dx="6" dy="6"/>
<feGaussianBlur stdDeviation="4.5"/>
<feComposite in2="hardAlpha" operator="out"/>
<feColorMatrix type="matrix" values="0 0 0 0 0 0 0 0 0 0 0 0 0 0 0 0 0 0 0.5 0"/>
<feBlend mode="normal" in2="BackgroundImageFix" result="effect1_dropShadow_204_761"/>
<feBlend mode="normal" in="SourceGraphic" in2="effect1_dropShadow_204_761" result="shape"/>
</filter>
<linearGradient id="paint0_linear_204_761" x1="55" y1="79.0017" x2="175" y2="79.0017" gradientUnits="userSpaceOnUse">
<stop stop-color="white"/>
<stop offset="0.094" stop-color="#F8F9F9"/>
<stop offset="0.211" stop-color="#E9E6E5"/>
<stop offset="0.33" stop-color="#D4CECE"/>
<stop offset="0.356" stop-color="#C5BEBE"/>
<stop offset="0.441" stop-color="#A09B9B"/>
<stop offset="0.522" stop-color="#878383"/>
<stop offset="0.597" stop-color="#797575"/>
<stop offset="0.66" stop-color="#757373"/>
<stop offset="1" stop-color="#C4BDBE"/>
</linearGradient>
<linearGradient id="paint1_linear_204_761" x1="175.782" y1="79.0017" x2="54.4" y2="79.0017" gradientUnits="userSpaceOnUse">
<stop stop-color="white"/>
<stop offset="0.085" stop-color="#FAF9F9"/>
<stop offset="0.19" stop-color="#ECEAEA"/>
<stop offset="0.307" stop-color="#D6D0D0"/>
<stop offset="0.33" stop-color="#D1CBCB"/>
<stop offset="0.362" stop-color="#C2BCBC"/>
<stop offset="0.446" stop-color="#A09C9C"/>
<stop offset="0.525" stop-color="#888585"/>
<stop offset="0.599" stop-color="#7A7777"/>
<stop offset="0.66" stop-color="#757373"/>
<stop offset="1" stop-color="#C0B9B9"/>
</linearGradient>
<linearGradient id="paint2_linear_204_761" x1="55" y1="79.0017" x2="175" y2="79.0017" gradientUnits="userSpaceOnUse">
<stop stop-color="white"/>
<stop offset="0.094" stop-color="#F8F9F9"/>
<stop offset="0.211" stop-color="#E9E6E5"/>
<stop offset="0.33" stop-color="#D4CECE"/>
<stop offset="0.356" stop-color="#C5BEBE"/>
<stop offset="0.441" stop-color="#A09B9B"/>
<stop offset="0.522" stop-color="#878383"/>
<stop offset="0.597" stop-color="#797575"/>
<stop offset="0.66" stop-color="#757373"/>
<stop offset="1" stop-color="#C4BDBE"/>
</linearGradient>
<linearGradient id="paint3_linear_204_761" x1="175.781" y1="79.0017" x2="54.4012" y2="79.0017" gradientUnits="userSpaceOnUse">
<stop stop-color="white"/>
<stop offset="0.085" stop-color="#FAF9F9"/>
<stop offset="0.19" stop-color="#ECEAEA"/>
<stop offset="0.307" stop-color="#D6D0D0"/>
<stop offset="0.33" stop-color="#D1CBCB"/>
<stop offset="0.362" stop-color="#C2BCBC"/>
<stop offset="0.446" stop-color="#A09C9C"/>
<stop offset="0.525" stop-color="#888585"/>
<stop offset="0.599" stop-color="#7A7777"/>
<stop offset="0.66" stop-color="#757373"/>
<stop offset="1" stop-color="#C0B9B9"/>
</linearGradient>
<linearGradient id="paint4_linear_204_761" x1="312.164" y1="8.02347" x2="156.224" y2="108.88" gradientUnits="userSpaceOnUse">
<stop stop-color="white"/>
<stop offset="0.094" stop-color="#F8F9F9"/>
<stop offset="0.211" stop-color="#E9E6E5"/>
<stop offset="0.33" stop-color="#D4CECE"/>
<stop offset="0.356" stop-color="#C5BEBE"/>
<stop offset="0.441" stop-color="#A09B9B"/>
<stop offset="0.522" stop-color="#878383"/>
<stop offset="0.597" stop-color="#797575"/>
<stop offset="0.66" stop-color="#757373"/>
<stop offset="1" stop-color="#C4BDBE"/>
</linearGradient>
<linearGradient id="paint5_linear_204_761" x1="252.203" y1="40.5321" x2="271.6" y2="40.5321" gradientUnits="userSpaceOnUse">
<stop stop-color="white"/>
<stop offset="0.094" stop-color="#F8F9F9"/>
<stop offset="0.211" stop-color="#E9E6E5"/>
<stop offset="0.33" stop-color="#D4CECE"/>
<stop offset="0.356" stop-color="#C5BEBE"/>
<stop offset="0.441" stop-color="#A09B9B"/>
<stop offset="0.522" stop-color="#878383"/>
<stop offset="0.597" stop-color="#797575"/>
<stop offset="0.66" stop-color="#757373"/>
<stop offset="1" stop-color="#C4BDBE"/>
</linearGradient>
<linearGradient id="paint6_linear_204_761" x1="149.886" y1="119.229" x2="210.741" y2="13.6365" gradientUnits="userSpaceOnUse">
<stop stop-color="white"/>
<stop offset="0.094" stop-color="#F8F9F9"/>
<stop offset="0.211" stop-color="#E9E6E5"/>
<stop offset="0.33" stop-color="#D4CECE"/>
<stop offset="0.356" stop-color="#C5BEBE"/>
<stop offset="0.441" stop-color="#A09B9B"/>
<stop offset="0.522" stop-color="#878383"/>
<stop offset="0.597" stop-color="#797575"/>
<stop offset="0.66" stop-color="#757373"/>
<stop offset="1" stop-color="#C4BDBE"/>
</linearGradient>
<linearGradient id="paint7_linear_204_761" x1="134.987" y1="70.3545" x2="243.408" y2="70.3545" gradientUnits="userSpaceOnUse">
<stop stop-color="white"/>
<stop offset="0.094" stop-color="#F8F9F9"/>
<stop offset="0.211" stop-color="#E9E6E5"/>
<stop offset="0.33" stop-color="#D4CECE"/>
<stop offset="0.356" stop-color="#C5BEBE"/>
<stop offset="0.441" stop-color="#A09B9B"/>
<stop offset="0.522" stop-color="#878383"/>
<stop offset="0.597" stop-color="#797575"/>
<stop offset="0.66" stop-color="#757373"/>
<stop offset="1" stop-color="#C4BDBE"/>
</linearGradient>
<linearGradient id="paint8_linear_204_761" x1="122.618" y1="124.237" x2="274.652" y2="24.8913" gradientUnits="userSpaceOnUse">
<stop stop-color="white"/>
<stop offset="0.094" stop-color="#F8F9F9"/>
<stop offset="0.211" stop-color="#E9E6E5"/>
<stop offset="0.33" stop-color="#D4CECE"/>
<stop offset="0.356" stop-color="#C5BEBE"/>
<stop offset="0.441" stop-color="#A09B9B"/>
<stop offset="0.522" stop-color="#878383"/>
<stop offset="0.597" stop-color="#797575"/>
<stop offset="0.66" stop-color="#757373"/>
<stop offset="1" stop-color="#C4BDBE"/>
</linearGradient>
<linearGradient id="paint9_linear_204_761" x1="120.4" y1="76.5153" x2="268.338" y2="76.5153" gradientUnits="userSpaceOnUse">
<stop stop-color="white"/>
<stop offset="0.094" stop-color="#F8F9F9"/>
<stop offset="0.211" stop-color="#E9E6E5"/>
<stop offset="0.33" stop-color="#D4CECE"/>
<stop offset="0.356" stop-color="#C5BEBE"/>
<stop offset="0.441" stop-color="#A09B9B"/>
<stop offset="0.522" stop-color="#878383"/>
<stop offset="0.597" stop-color="#797575"/>
<stop offset="0.66" stop-color="#757373"/>
<stop offset="1" stop-color="#C4BDBE"/>
</linearGradient>
<linearGradient id="paint10_linear_204_761" x1="153.27" y1="1.00287" x2="237.371" y2="152.741" gradientUnits="userSpaceOnUse">
<stop stop-color="white"/>
<stop offset="0.094" stop-color="#F8F9F9"/>
<stop offset="0.211" stop-color="#E9E6E5"/>
<stop offset="0.33" stop-color="#D4CECE"/>
<stop offset="0.356" stop-color="#C5BEBE"/>
<stop offset="0.441" stop-color="#A09B9B"/>
<stop offset="0.522" stop-color="#878383"/>
<stop offset="0.597" stop-color="#797575"/>
<stop offset="0.66" stop-color="#757373"/>
<stop offset="1" stop-color="#C4BDBE"/>
</linearGradient>
<linearGradient id="paint11_linear_204_761" x1="120.4" y1="75.6981" x2="264.527" y2="75.6981" gradientUnits="userSpaceOnUse">
<stop stop-color="white"/>
<stop offset="0.094" stop-color="#F8F9F9"/>
<stop offset="0.211" stop-color="#E9E6E5"/>
<stop offset="0.33" stop-color="#D4CECE"/>
<stop offset="0.356" stop-color="#C5BEBE"/>
<stop offset="0.441" stop-color="#A09B9B"/>
<stop offset="0.522" stop-color="#878383"/>
<stop offset="0.597" stop-color="#797575"/>
<stop offset="0.66" stop-color="#757373"/>
<stop offset="1" stop-color="#C4BDBE"/>
</linearGradient>
<linearGradient id="paint12_linear_204_761" x1="309.33" y1="54.1917" x2="154.94" y2="154.048" gradientUnits="userSpaceOnUse">
<stop stop-color="white"/>
<stop offset="0.094" stop-color="#F8F9F9"/>
<stop offset="0.211" stop-color="#E9E6E5"/>
<stop offset="0.33" stop-color="#D4CECE"/>
<stop offset="0.356" stop-color="#C5BEBE"/>
<stop offset="0.441" stop-color="#A09B9B"/>
<stop offset="0.522" stop-color="#878383"/>
<stop offset="0.597" stop-color="#797575"/>
<stop offset="0.66" stop-color="#757373"/>
<stop offset="1" stop-color="#C4BDBE"/>
</linearGradient>
<linearGradient id="paint13_linear_204_761" x1="137.297" y1="127.749" x2="266.973" y2="127.749" gradientUnits="userSpaceOnUse">
<stop stop-color="white"/>
<stop offset="0.094" stop-color="#F8F9F9"/>
<stop offset="0.211" stop-color="#E9E6E5"/>
<stop offset="0.33" stop-color="#D4CECE"/>
<stop offset="0.356" stop-color="#C5BEBE"/>
<stop offset="0.441" stop-color="#A09B9B"/>
<stop offset="0.522" stop-color="#878383"/>
<stop offset="0.597" stop-color="#797575"/>
<stop offset="0.66" stop-color="#757373"/>
<stop offset="1" stop-color="#C4BDBE"/>
</linearGradient>
<linearGradient id="paint14_linear_204_761" x1="49.9744" y1="-7.65931" x2="9.4654" y2="157.42" gradientUnits="userSpaceOnUse">
<stop stop-color="white"/>
<stop offset="0.094" stop-color="#F8F9F9"/>
<stop offset="0.211" stop-color="#E9E6E5"/>
<stop offset="0.33" stop-color="#D4CECE"/>
<stop offset="0.356" stop-color="#C5BEBE"/>
<stop offset="0.441" stop-color="#A09B9B"/>
<stop offset="0.522" stop-color="#878383"/>
<stop offset="0.597" stop-color="#797575"/>
<stop offset="0.66" stop-color="#757373"/>
<stop offset="1" stop-color="#C4BDBE"/>
</linearGradient>
<linearGradient id="paint15_linear_204_761" x1="3.2182" y1="218.202" x2="49.6" y2="218.202" gradientUnits="userSpaceOnUse">
<stop stop-color="white"/>
<stop offset="0.094" stop-color="#F8F9F9"/>
<stop offset="0.211" stop-color="#E9E6E5"/>
<stop offset="0.33" stop-color="#D4CECE"/>
<stop offset="0.356" stop-color="#C5BEBE"/>
<stop offset="0.441" stop-color="#A09B9B"/>
<stop offset="0.522" stop-color="#878383"/>
<stop offset="0.597" stop-color="#797575"/>
<stop offset="0.66" stop-color="#757373"/>
<stop offset="1" stop-color="#C4BDBE"/>
</linearGradient>
<linearGradient id="paint16_linear_204_761" x1="247.298" y1="90.0015" x2="270.94" y2="66.3177" gradientUnits="userSpaceOnUse">
<stop stop-color="#821B24"/>
<stop offset="1" stop-color="#BF2E2D"/>
</linearGradient>
<linearGradient id="paint17_linear_204_761" x1="56.89" y1="41.5287" x2="175" y2="41.5287" gradientUnits="userSpaceOnUse">
<stop stop-color="white"/>
<stop offset="0.094" stop-color="#F8F9F9"/>
<stop offset="0.211" stop-color="#E9E6E5"/>
<stop offset="0.33" stop-color="#D4CECE"/>
<stop offset="0.356" stop-color="#C5BEBE"/>
<stop offset="0.441" stop-color="#A09B9B"/>
<stop offset="0.522" stop-color="#878383"/>
<stop offset="0.597" stop-color="#797575"/>
<stop offset="0.66" stop-color="#757373"/>
<stop offset="1" stop-color="#C4BDBE"/>
</linearGradient>
<linearGradient id="paint18_linear_204_761" x1="56.89" y1="41.5287" x2="175" y2="41.5287" gradientUnits="userSpaceOnUse">
<stop stop-color="white"/>
<stop offset="0.094" stop-color="#F8F9F9"/>
<stop offset="0.211" stop-color="#E9E6E5"/>
<stop offset="0.33" stop-color="#D4CECE"/>
<stop offset="0.356" stop-color="#C5BEBE"/>
<stop offset="0.441" stop-color="#A09B9B"/>
<stop offset="0.522" stop-color="#878383"/>
<stop offset="0.597" stop-color="#797575"/>
<stop offset="0.66" stop-color="#757373"/>
<stop offset="1" stop-color="#C4BDBE"/>
</linearGradient>
<linearGradient id="paint19_linear_204_761" x1="175.782" y1="42.1689" x2="55.8586" y2="42.1689" gradientUnits="userSpaceOnUse">
<stop stop-color="white"/>
<stop offset="0.085" stop-color="#FAF9F9"/>
<stop offset="0.19" stop-color="#ECEAEA"/>
<stop offset="0.307" stop-color="#D6D0D0"/>
<stop offset="0.33" stop-color="#D1CBCB"/>
<stop offset="0.362" stop-color="#C2BCBC"/>
<stop offset="0.446" stop-color="#A09C9C"/>
<stop offset="0.525" stop-color="#888585"/>
<stop offset="0.599" stop-color="#7A7777"/>
<stop offset="0.66" stop-color="#757373"/>
<stop offset="1" stop-color="#C0B9B9"/>
</linearGradient>
</defs>
</svg>
